M48
; DRILL file {KiCad 9.0.0} date 2025-12-23T16:07:21-0500
; FORMAT={-:-/ absolute / metric / decimal}
; #@! TF.CreationDate,2025-12-23T16:07:21-05:00
; #@! TF.GenerationSoftware,Kicad,Pcbnew,9.0.0
; #@! TF.FileFunction,Plated,1,2,PTH
FMAT,2
METRIC
; #@! TA.AperFunction,Plated,PTH,ViaDrill
T1C0.300
; #@! TA.AperFunction,Plated,PTH,ComponentDrill
T2C3.200
%
G90
G05
T1
X22.586Y-24.5
X22.586Y-27.0
X22.586Y-29.5
X22.586Y-32.0
X22.586Y-34.5
X22.586Y-37.0
X22.586Y-39.5
X22.586Y-42.0
X22.586Y-44.5
X22.586Y-47.0
X22.586Y-49.5
X22.586Y-52.0
X25.086Y-24.5
X25.086Y-27.0
X25.086Y-29.5
X25.086Y-32.0
X25.086Y-34.5
X25.086Y-37.0
X25.086Y-39.5
X25.086Y-42.0
X25.086Y-44.5
X25.086Y-47.0
X25.086Y-49.5
X25.086Y-52.0
X27.586Y-24.5
X27.586Y-27.0
X27.586Y-29.5
X27.586Y-32.0
X27.586Y-34.5
X27.586Y-37.0
X27.586Y-39.5
X27.586Y-42.0
X27.586Y-44.5
X27.586Y-47.0
X27.586Y-49.5
X27.586Y-52.0
X30.086Y-24.5
X30.086Y-27.0
X30.086Y-29.5
X30.086Y-32.0
X30.086Y-34.5
X30.086Y-37.0
X30.086Y-39.5
X30.086Y-42.0
X30.086Y-44.5
X30.086Y-47.0
X30.086Y-49.5
X30.086Y-52.0
X31.336Y-59.25
X32.586Y-24.5
X32.586Y-27.0
X32.586Y-29.5
X32.586Y-32.0
X32.586Y-34.5
X32.586Y-37.0
X32.586Y-39.5
X32.586Y-42.0
X32.586Y-44.5
X32.586Y-47.0
X32.586Y-49.5
X32.586Y-52.0
X35.086Y-24.5
X35.086Y-27.0
X35.086Y-29.5
X35.086Y-32.0
X35.086Y-34.5
X35.086Y-37.0
X35.086Y-39.5
X35.086Y-42.0
X35.086Y-44.5
X35.086Y-47.0
X35.086Y-49.5
X35.086Y-52.0
X37.586Y-24.5
X37.586Y-27.0
X37.586Y-29.5
X37.586Y-32.0
X37.586Y-34.5
X37.586Y-37.0
X37.586Y-39.5
X37.586Y-42.0
X37.586Y-44.5
X37.586Y-47.0
X37.586Y-49.5
X37.586Y-52.0
X38.836Y-56.75
X38.836Y-61.75
X40.086Y-24.5
X40.086Y-27.0
X40.086Y-29.5
X40.086Y-32.0
X40.086Y-34.5
X40.086Y-37.0
X40.086Y-39.5
X40.086Y-42.0
X40.086Y-44.5
X40.086Y-47.0
X40.086Y-49.5
X40.086Y-52.0
X42.586Y-24.5
X42.586Y-27.0
X42.586Y-29.5
X42.586Y-32.0
X42.586Y-34.5
X42.586Y-37.0
X42.586Y-39.5
X42.586Y-42.0
X42.586Y-44.5
X42.586Y-47.0
X42.586Y-49.5
X42.586Y-52.0
X45.086Y-24.5
X45.086Y-27.0
X45.086Y-29.5
X45.086Y-32.0
X45.086Y-34.5
X45.086Y-37.0
X45.086Y-39.5
X45.086Y-42.0
X45.086Y-44.5
X45.086Y-47.0
X45.086Y-49.5
X45.086Y-52.0
X46.5Y-59.25
X47.586Y-24.5
X47.586Y-27.0
X47.586Y-29.5
X47.586Y-32.0
X47.586Y-34.5
X47.586Y-37.0
X47.586Y-39.5
X47.586Y-42.0
X47.586Y-44.5
X47.586Y-47.0
X47.586Y-49.5
X47.586Y-52.0
X50.086Y-24.5
X50.086Y-27.0
X50.086Y-29.5
X50.086Y-32.0
X50.086Y-34.5
X50.086Y-37.0
X50.086Y-39.5
X50.086Y-42.0
X50.086Y-44.5
X50.086Y-47.0
X50.086Y-49.5
X50.086Y-52.0
X52.5Y-25.5
X52.5Y-28.0
X52.5Y-30.5
X52.5Y-33.0
X52.5Y-35.5
X52.5Y-38.0
X52.5Y-40.5
X52.5Y-43.0
X57.336Y-47.0
X57.736Y-48.15
X58.086Y-26.0
X58.086Y-49.0
X58.286Y-44.5
X58.836Y-30.35
X59.586Y-26.0
X59.614Y-30.35
X61.186Y-25.8
X61.336Y-30.25
X61.836Y-46.0
X62.068Y-47.5
X62.086Y-30.0
X62.096Y-48.25
X62.336Y-45.25
X62.803Y-44.466
X62.836Y-30.25
X63.336Y-60.5
X63.586Y-30.0
X64.305Y-29.03
X64.336Y-30.25
X64.536Y-25.25
X65.0Y-45.25
X65.586Y-31.0
X65.836Y-25.25
X66.0Y-44.25
X66.043Y-27.207
X66.086Y-72.75
X67.586Y-49.0
X67.75Y-24.25
X68.085Y-32.0
X68.086Y-62.0
X68.526Y-50.95
T2
X24.586Y-104.75
M30
