%TF.GenerationSoftware,KiCad,Pcbnew,9.0.0*%
%TF.CreationDate,2025-12-23T16:07:17-05:00*%
%TF.ProjectId,BusinessCard,42757369-6e65-4737-9343-6172642e6b69,rev?*%
%TF.SameCoordinates,Original*%
%TF.FileFunction,Profile,NP*%
%FSLAX46Y46*%
G04 Gerber Fmt 4.6, Leading zero omitted, Abs format (unit mm)*
G04 Created by KiCad (PCBNEW 9.0.0) date 2025-12-23 16:07:17*
%MOMM*%
%LPD*%
G01*
G04 APERTURE LIST*
%TA.AperFunction,Profile*%
%ADD10C,0.050000*%
%TD*%
G04 APERTURE END LIST*
D10*
X23000000Y-109500000D02*
X23000000Y-109000000D01*
X69000000Y-109000000D02*
X69000000Y-109500000D01*
X68000000Y-109000000D02*
X23000000Y-109000000D01*
X69000000Y-109500000D02*
X71000000Y-109500000D01*
X68000000Y-19500000D02*
X68000000Y-20000000D01*
X69000000Y-19500000D02*
X69000000Y-20000000D01*
X22000000Y-19500000D02*
X20000000Y-19500000D01*
X68000000Y-109000000D02*
X68000000Y-109500000D01*
X71000000Y-19500000D02*
X71000000Y-17500000D01*
X71000000Y-111500000D02*
X20000000Y-111500000D01*
X23000000Y-20000000D02*
X68000000Y-20000000D01*
X71000000Y-22000000D02*
X71000000Y-107000000D01*
X22000000Y-20000000D02*
X22000000Y-19500000D01*
X71000000Y-107000000D02*
G75*
G02*
X69000000Y-109000000I-2000000J0D01*
G01*
X20000000Y-17500000D02*
X71000000Y-17500000D01*
X20000000Y-109500000D02*
X20000000Y-111500000D01*
X71000000Y-109500000D02*
X71000000Y-111500000D01*
X69000000Y-20000000D02*
G75*
G02*
X71000000Y-22000000I0J-2000000D01*
G01*
X20000000Y-107000000D02*
X20000000Y-22000000D01*
X23000000Y-19500000D02*
X68000000Y-19500000D01*
X71000000Y-19500000D02*
X69000000Y-19500000D01*
X20000000Y-109500000D02*
X22000000Y-109500000D01*
X68000000Y-109500000D02*
X23000000Y-109500000D01*
X20000000Y-22000000D02*
G75*
G02*
X22000000Y-20000000I2000000J0D01*
G01*
X20000000Y-19500000D02*
X20000000Y-17500000D01*
X23000000Y-20000000D02*
X23000000Y-19500000D01*
X22000000Y-109500000D02*
X22000000Y-109000000D01*
X22000000Y-109000000D02*
G75*
G02*
X20000000Y-107000000I0J2000000D01*
G01*
%TO.C,REF\u002A\u002A*%
X24076000Y-110500000D02*
G75*
G02*
X22924000Y-110500000I-576000J0D01*
G01*
X22924000Y-110500000D02*
G75*
G02*
X24076000Y-110500000I576000J0D01*
G01*
X24076000Y-18500000D02*
G75*
G02*
X22924000Y-18500000I-576000J0D01*
G01*
X22924000Y-18500000D02*
G75*
G02*
X24076000Y-18500000I576000J0D01*
G01*
%TO.C,J3*%
X33980049Y-76500000D02*
X37691523Y-76500000D01*
X33985786Y-69050000D02*
X33980049Y-76500000D01*
X37696666Y-69051747D02*
X33985786Y-69050000D01*
X63185786Y-69050000D02*
X59474312Y-69050000D01*
X63185786Y-69050000D02*
X63191523Y-76500000D01*
X63191523Y-76500000D02*
X59480049Y-76499997D01*
X37696666Y-69051747D02*
G75*
G02*
X59474312Y-69050000I10889120J-3698253D01*
G01*
X59480049Y-76500000D02*
G75*
G02*
X37691523Y-76500000I-10894263J3750000D01*
G01*
%TO.C,REF\u002A\u002A*%
X68076000Y-110500000D02*
G75*
G02*
X66924000Y-110500000I-576000J0D01*
G01*
X66924000Y-110500000D02*
G75*
G02*
X68076000Y-110500000I576000J0D01*
G01*
X68076000Y-18500000D02*
G75*
G02*
X66924000Y-18500000I-576000J0D01*
G01*
X66924000Y-18500000D02*
G75*
G02*
X68076000Y-18500000I576000J0D01*
G01*
%TD*%
M02*
