%TF.GenerationSoftware,KiCad,Pcbnew,9.0.0*%
%TF.CreationDate,2025-12-20T00:19:53-05:00*%
%TF.ProjectId,BusinessCard,42757369-6e65-4737-9343-6172642e6b69,rev?*%
%TF.SameCoordinates,Original*%
%TF.FileFunction,Paste,Top*%
%TF.FilePolarity,Positive*%
%FSLAX46Y46*%
G04 Gerber Fmt 4.6, Leading zero omitted, Abs format (unit mm)*
G04 Created by KiCad (PCBNEW 9.0.0) date 2025-12-20 00:19:53*
%MOMM*%
%LPD*%
G01*
G04 APERTURE LIST*
G04 Aperture macros list*
%AMRoundRect*
0 Rectangle with rounded corners*
0 $1 Rounding radius*
0 $2 $3 $4 $5 $6 $7 $8 $9 X,Y pos of 4 corners*
0 Add a 4 corners polygon primitive as box body*
4,1,4,$2,$3,$4,$5,$6,$7,$8,$9,$2,$3,0*
0 Add four circle primitives for the rounded corners*
1,1,$1+$1,$2,$3*
1,1,$1+$1,$4,$5*
1,1,$1+$1,$6,$7*
1,1,$1+$1,$8,$9*
0 Add four rect primitives between the rounded corners*
20,1,$1+$1,$2,$3,$4,$5,0*
20,1,$1+$1,$4,$5,$6,$7,0*
20,1,$1+$1,$6,$7,$8,$9,0*
20,1,$1+$1,$8,$9,$2,$3,0*%
G04 Aperture macros list end*
%ADD10RoundRect,0.160000X-0.160000X0.197500X-0.160000X-0.197500X0.160000X-0.197500X0.160000X0.197500X0*%
%ADD11C,1.000000*%
%ADD12RoundRect,0.160000X-0.044194X-0.270468X0.270468X0.044194X0.044194X0.270468X-0.270468X-0.044194X0*%
%ADD13RoundRect,0.112500X0.112500X-0.187500X0.112500X0.187500X-0.112500X0.187500X-0.112500X-0.187500X0*%
%ADD14RoundRect,0.160000X0.197500X0.160000X-0.197500X0.160000X-0.197500X-0.160000X0.197500X-0.160000X0*%
%ADD15RoundRect,0.160000X-0.197500X-0.160000X0.197500X-0.160000X0.197500X0.160000X-0.197500X0.160000X0*%
%ADD16R,0.950000X1.400000*%
%ADD17RoundRect,0.155000X-0.212500X-0.155000X0.212500X-0.155000X0.212500X0.155000X-0.212500X0.155000X0*%
%ADD18RoundRect,0.200000X-0.800000X-1.550000X0.800000X-1.550000X0.800000X1.550000X-0.800000X1.550000X0*%
%ADD19RoundRect,0.070000X-0.710000X-0.070000X0.710000X-0.070000X0.710000X0.070000X-0.710000X0.070000X0*%
%ADD20RoundRect,0.070000X-0.070000X-0.710000X0.070000X-0.710000X0.070000X0.710000X-0.070000X0.710000X0*%
%ADD21RoundRect,0.155000X0.155000X-0.212500X0.155000X0.212500X-0.155000X0.212500X-0.155000X-0.212500X0*%
G04 APERTURE END LIST*
D10*
%TO.C,R1*%
X174250000Y-57097500D03*
X174250000Y-55902500D03*
%TD*%
D11*
%TO.C,J2*%
X174625000Y-52250000D03*
X175875000Y-52250000D03*
X177125000Y-52250000D03*
X178375000Y-52250000D03*
%TD*%
D12*
%TO.C,D112*%
X141250000Y-76744050D03*
X142059638Y-75934412D03*
%TD*%
%TO.C,D30*%
X146250000Y-59244050D03*
X147059638Y-58434412D03*
%TD*%
D13*
%TO.C,D1*%
X171500000Y-60000000D03*
X171500000Y-57900000D03*
%TD*%
D11*
%TO.C,J1*%
X184500000Y-78500000D03*
X184500000Y-77250000D03*
X184500000Y-76000000D03*
%TD*%
D14*
%TO.C,R9*%
X168097500Y-56744050D03*
X166902500Y-56744050D03*
%TD*%
D12*
%TO.C,D95*%
X158750000Y-71744050D03*
X159559638Y-70934412D03*
%TD*%
%TO.C,D101*%
X143750000Y-74244050D03*
X144559638Y-73434412D03*
%TD*%
%TO.C,D12*%
X161250000Y-54244050D03*
X162059638Y-53434412D03*
%TD*%
%TO.C,D10*%
X156250000Y-54244050D03*
X157059638Y-53434412D03*
%TD*%
%TO.C,D22*%
X156250000Y-56744050D03*
X157059638Y-55934412D03*
%TD*%
D15*
%TO.C,R2*%
X151602500Y-84750000D03*
X152797500Y-84750000D03*
%TD*%
D12*
%TO.C,D126*%
X146250000Y-79244050D03*
X147059638Y-78434412D03*
%TD*%
%TO.C,D60*%
X161250000Y-64244050D03*
X162059638Y-63434412D03*
%TD*%
D16*
%TO.C,SW3*%
X145925000Y-89750000D03*
X150075000Y-89750000D03*
%TD*%
D12*
%TO.C,D4*%
X141250000Y-54244050D03*
X142059638Y-53434412D03*
%TD*%
%TO.C,D6*%
X146250000Y-54244050D03*
X147059638Y-53434412D03*
%TD*%
%TO.C,D86*%
X136250000Y-71744050D03*
X137059638Y-70934412D03*
%TD*%
D14*
%TO.C,R17*%
X168097500Y-76744050D03*
X166902500Y-76744050D03*
%TD*%
D16*
%TO.C,SW2*%
X138425000Y-87250000D03*
X142575000Y-87250000D03*
%TD*%
D12*
%TO.C,D84*%
X161250000Y-69244050D03*
X162059638Y-68434412D03*
%TD*%
%TO.C,D9*%
X153750000Y-54244050D03*
X154559638Y-53434412D03*
%TD*%
%TO.C,D124*%
X141250000Y-79244050D03*
X142059638Y-78434412D03*
%TD*%
%TO.C,D66*%
X146250000Y-66744050D03*
X147059638Y-65934412D03*
%TD*%
D14*
%TO.C,R16*%
X168097500Y-74374050D03*
X166902500Y-74374050D03*
%TD*%
D12*
%TO.C,D59*%
X158750000Y-64244050D03*
X159559638Y-63434412D03*
%TD*%
%TO.C,D32*%
X151250000Y-59244050D03*
X152059638Y-58434412D03*
%TD*%
%TO.C,D81*%
X153750000Y-69244050D03*
X154559638Y-68434412D03*
%TD*%
%TO.C,D122*%
X136250000Y-79244050D03*
X137059638Y-78434412D03*
%TD*%
%TO.C,D15*%
X138750000Y-56744050D03*
X139559638Y-55934412D03*
%TD*%
D14*
%TO.C,R19*%
X168097500Y-81744050D03*
X166902500Y-81744050D03*
%TD*%
D12*
%TO.C,D136*%
X141250000Y-81744050D03*
X142059638Y-80934412D03*
%TD*%
%TO.C,D114*%
X146250000Y-76744050D03*
X147059638Y-75934412D03*
%TD*%
%TO.C,D47*%
X158750000Y-61744050D03*
X159559638Y-60934412D03*
%TD*%
%TO.C,D64*%
X141250000Y-66744050D03*
X142059638Y-65934412D03*
%TD*%
%TO.C,D20*%
X151250000Y-56744050D03*
X152059638Y-55934412D03*
%TD*%
%TO.C,D37*%
X163750000Y-59244050D03*
X164559638Y-58434412D03*
%TD*%
%TO.C,D65*%
X143750000Y-66744050D03*
X144559638Y-65934412D03*
%TD*%
%TO.C,D144*%
X161250000Y-81744050D03*
X162059638Y-80934412D03*
%TD*%
%TO.C,D16*%
X141250000Y-56744050D03*
X142059638Y-55934412D03*
%TD*%
%TO.C,D82*%
X156250000Y-69244050D03*
X157059638Y-68434412D03*
%TD*%
%TO.C,D21*%
X153750000Y-56744050D03*
X154559638Y-55934412D03*
%TD*%
D15*
%TO.C,R3*%
X151652500Y-89750000D03*
X152847500Y-89750000D03*
%TD*%
D12*
%TO.C,D99*%
X138750000Y-74244050D03*
X139559638Y-73434412D03*
%TD*%
%TO.C,D35*%
X158750000Y-59244050D03*
X159559638Y-58434412D03*
%TD*%
D14*
%TO.C,R15*%
X168097500Y-71744050D03*
X166902500Y-71744050D03*
%TD*%
D12*
%TO.C,D62*%
X136250000Y-66744050D03*
X137059638Y-65934412D03*
%TD*%
%TO.C,D91*%
X148750000Y-71744050D03*
X149559638Y-70934412D03*
%TD*%
D17*
%TO.C,C2*%
X181432500Y-60750000D03*
X182567500Y-60750000D03*
%TD*%
D12*
%TO.C,D8*%
X151250000Y-54244050D03*
X152059638Y-53434412D03*
%TD*%
D18*
%TO.C,J3*%
X147750000Y-100750000D03*
X179250000Y-100750000D03*
%TD*%
D12*
%TO.C,D75*%
X138750000Y-69244050D03*
X139559638Y-68434412D03*
%TD*%
%TO.C,D49*%
X163750000Y-61744050D03*
X164559638Y-60934412D03*
%TD*%
%TO.C,D11*%
X158750000Y-54244050D03*
X159559638Y-53434412D03*
%TD*%
%TO.C,D90*%
X146250000Y-71744050D03*
X147059638Y-70934412D03*
%TD*%
D16*
%TO.C,SW5*%
X170350000Y-88500000D03*
X174500000Y-88500000D03*
%TD*%
D12*
%TO.C,D98*%
X136250000Y-74244050D03*
X137059638Y-73434412D03*
%TD*%
%TO.C,D19*%
X148750000Y-56744050D03*
X149559638Y-55934412D03*
%TD*%
%TO.C,D53*%
X143750000Y-64244050D03*
X144559638Y-63434412D03*
%TD*%
%TO.C,D80*%
X151250000Y-69244050D03*
X152059638Y-68434412D03*
%TD*%
D15*
%TO.C,R7*%
X181980000Y-91000000D03*
X183175000Y-91000000D03*
%TD*%
D12*
%TO.C,D96*%
X161250000Y-71744050D03*
X162059638Y-70934412D03*
%TD*%
%TO.C,D116*%
X151250000Y-76744050D03*
X152059638Y-75934412D03*
%TD*%
%TO.C,D134*%
X136250000Y-81744050D03*
X137059638Y-80934412D03*
%TD*%
D14*
%TO.C,R11*%
X168097500Y-61744050D03*
X166902500Y-61744050D03*
%TD*%
D12*
%TO.C,D57*%
X153750000Y-64244050D03*
X154559638Y-63434412D03*
%TD*%
%TO.C,D78*%
X146250000Y-69244050D03*
X147059638Y-68434412D03*
%TD*%
%TO.C,D135*%
X138750000Y-81744050D03*
X139559638Y-80934412D03*
%TD*%
%TO.C,D113*%
X143750000Y-76744050D03*
X144559638Y-75934412D03*
%TD*%
%TO.C,D31*%
X148750000Y-59244050D03*
X149559638Y-58434412D03*
%TD*%
%TO.C,D41*%
X143750000Y-61744050D03*
X144559638Y-60934412D03*
%TD*%
D17*
%TO.C,C3*%
X181432500Y-59500000D03*
X182567500Y-59500000D03*
%TD*%
D12*
%TO.C,D77*%
X143750000Y-69244050D03*
X144559638Y-68434412D03*
%TD*%
D14*
%TO.C,R14*%
X168097500Y-69244050D03*
X166902500Y-69244050D03*
%TD*%
D12*
%TO.C,D105*%
X153750000Y-74244050D03*
X154559638Y-73434412D03*
%TD*%
%TO.C,D100*%
X141250000Y-74244050D03*
X142059638Y-73434412D03*
%TD*%
%TO.C,D103*%
X148750000Y-74244050D03*
X149559638Y-73434412D03*
%TD*%
%TO.C,D109*%
X163750000Y-74244050D03*
X164559638Y-73434412D03*
%TD*%
D14*
%TO.C,R10*%
X168097500Y-59244050D03*
X166902500Y-59244050D03*
%TD*%
D12*
%TO.C,D55*%
X148750000Y-64244050D03*
X149559638Y-63434412D03*
%TD*%
%TO.C,D115*%
X148750000Y-76744050D03*
X149559638Y-75934412D03*
%TD*%
%TO.C,D43*%
X148750000Y-61744050D03*
X149559638Y-60934412D03*
%TD*%
%TO.C,D104*%
X151250000Y-74244050D03*
X152059638Y-73434412D03*
%TD*%
%TO.C,D45*%
X153750000Y-61744050D03*
X154559638Y-60934412D03*
%TD*%
D14*
%TO.C,R18*%
X168097500Y-79244050D03*
X166902500Y-79244050D03*
%TD*%
D12*
%TO.C,D110*%
X136250000Y-76744050D03*
X137059638Y-75934412D03*
%TD*%
%TO.C,D118*%
X156250000Y-76744050D03*
X157059638Y-75934412D03*
%TD*%
%TO.C,D117*%
X153750000Y-76744050D03*
X154559638Y-75934412D03*
%TD*%
%TO.C,D54*%
X146250000Y-64244050D03*
X147059638Y-63434412D03*
%TD*%
%TO.C,D102*%
X146250000Y-74244050D03*
X147059638Y-73434412D03*
%TD*%
%TO.C,D141*%
X153750000Y-81744050D03*
X154559638Y-80934412D03*
%TD*%
%TO.C,D130*%
X156250000Y-79244050D03*
X157059638Y-78434412D03*
%TD*%
%TO.C,D70*%
X156250000Y-66744050D03*
X157059638Y-65934412D03*
%TD*%
%TO.C,D38*%
X136250000Y-61744050D03*
X137059638Y-60934412D03*
%TD*%
%TO.C,D14*%
X136250000Y-56744050D03*
X137059638Y-55934412D03*
%TD*%
D15*
%TO.C,R4*%
X144000000Y-87250000D03*
X145195000Y-87250000D03*
%TD*%
D12*
%TO.C,D83*%
X158750000Y-69244050D03*
X159559638Y-68434412D03*
%TD*%
D16*
%TO.C,SW6*%
X176350000Y-91000000D03*
X180500000Y-91000000D03*
%TD*%
D12*
%TO.C,D48*%
X161250000Y-61744050D03*
X162059638Y-60934412D03*
%TD*%
%TO.C,D24*%
X161250000Y-56744050D03*
X162059638Y-55934412D03*
%TD*%
%TO.C,D46*%
X156250000Y-61744050D03*
X157059638Y-60934412D03*
%TD*%
%TO.C,D23*%
X158750000Y-56744050D03*
X159559638Y-55934412D03*
%TD*%
%TO.C,D29*%
X143750000Y-59244050D03*
X144559638Y-58434412D03*
%TD*%
%TO.C,D72*%
X161250000Y-66744050D03*
X162059638Y-65934412D03*
%TD*%
D15*
%TO.C,R6*%
X175980000Y-88500000D03*
X177175000Y-88500000D03*
%TD*%
D12*
%TO.C,D79*%
X148750000Y-69244050D03*
X149559638Y-68434412D03*
%TD*%
%TO.C,D33*%
X153750000Y-59244050D03*
X154559638Y-58434412D03*
%TD*%
%TO.C,D44*%
X151250000Y-61744050D03*
X152059638Y-60934412D03*
%TD*%
D15*
%TO.C,R5*%
X159055000Y-87250000D03*
X160250000Y-87250000D03*
%TD*%
D12*
%TO.C,D92*%
X151250000Y-71744050D03*
X152059638Y-70934412D03*
%TD*%
%TO.C,D25*%
X163750000Y-56744050D03*
X164559638Y-55934412D03*
%TD*%
D16*
%TO.C,SW1*%
X145925000Y-84750000D03*
X150075000Y-84750000D03*
%TD*%
D12*
%TO.C,D2*%
X136250000Y-54244050D03*
X137059638Y-53434412D03*
%TD*%
%TO.C,D26*%
X136250000Y-59244050D03*
X137059638Y-58434412D03*
%TD*%
%TO.C,D145*%
X163750000Y-81744050D03*
X164559638Y-80934412D03*
%TD*%
%TO.C,D39*%
X138750000Y-61744050D03*
X139559638Y-60934412D03*
%TD*%
%TO.C,D125*%
X143750000Y-79244050D03*
X144559638Y-78434412D03*
%TD*%
%TO.C,D106*%
X156250000Y-74244050D03*
X157059638Y-73434412D03*
%TD*%
%TO.C,D3*%
X138750000Y-54244050D03*
X139559638Y-53434412D03*
%TD*%
%TO.C,D119*%
X158750000Y-76744050D03*
X159559638Y-75934412D03*
%TD*%
%TO.C,D36*%
X161250000Y-59244050D03*
X162059638Y-58434412D03*
%TD*%
%TO.C,D123*%
X138750000Y-79244050D03*
X139559638Y-78434412D03*
%TD*%
%TO.C,D40*%
X141250000Y-61744050D03*
X142059638Y-60934412D03*
%TD*%
%TO.C,D76*%
X141250000Y-69244050D03*
X142059638Y-68434412D03*
%TD*%
%TO.C,D137*%
X143750000Y-81744050D03*
X144559638Y-80934412D03*
%TD*%
%TO.C,D133*%
X163750000Y-79244050D03*
X164559638Y-78434412D03*
%TD*%
%TO.C,D88*%
X141250000Y-71744050D03*
X142059638Y-70934412D03*
%TD*%
%TO.C,D68*%
X151250000Y-66744050D03*
X152059638Y-65934412D03*
%TD*%
%TO.C,D120*%
X161250000Y-76744050D03*
X162059638Y-75934412D03*
%TD*%
%TO.C,D63*%
X138750000Y-66744050D03*
X139559638Y-65934412D03*
%TD*%
D14*
%TO.C,R12*%
X168097500Y-64244050D03*
X166902500Y-64244050D03*
%TD*%
D12*
%TO.C,D71*%
X158750000Y-66744050D03*
X159559638Y-65934412D03*
%TD*%
%TO.C,D85*%
X163750000Y-69244050D03*
X164559638Y-68434412D03*
%TD*%
%TO.C,D28*%
X141250000Y-59244050D03*
X142059638Y-58434412D03*
%TD*%
D19*
%TO.C,U1*%
X172500000Y-62000000D03*
X172500000Y-62500000D03*
X172500000Y-63000000D03*
X172500000Y-63500000D03*
X172500000Y-64000000D03*
X172500000Y-64500000D03*
X172500000Y-65000000D03*
X172500000Y-65500000D03*
X172500000Y-66000000D03*
X172500000Y-66500000D03*
X172500000Y-67000000D03*
X172500000Y-67500000D03*
D20*
X173930000Y-68930000D03*
X174430000Y-68930000D03*
X174930000Y-68930000D03*
X175430000Y-68930000D03*
X175930000Y-68930000D03*
X176430000Y-68930000D03*
X176930000Y-68930000D03*
X177430000Y-68930000D03*
X177930000Y-68930000D03*
X178430000Y-68930000D03*
X178930000Y-68930000D03*
X179430000Y-68930000D03*
D19*
X180860000Y-67500000D03*
X180860000Y-67000000D03*
X180860000Y-66500000D03*
X180860000Y-66000000D03*
X180860000Y-65500000D03*
X180860000Y-65000000D03*
X180860000Y-64500000D03*
X180860000Y-64000000D03*
X180860000Y-63500000D03*
X180860000Y-63000000D03*
X180860000Y-62500000D03*
X180860000Y-62000000D03*
D20*
X179430000Y-60570000D03*
X178930000Y-60570000D03*
X178430000Y-60570000D03*
X177930000Y-60570000D03*
X177430000Y-60570000D03*
X176930000Y-60570000D03*
X176430000Y-60570000D03*
X175930000Y-60570000D03*
X175430000Y-60570000D03*
X174930000Y-60570000D03*
X174430000Y-60570000D03*
X173930000Y-60570000D03*
%TD*%
D12*
%TO.C,D143*%
X158750000Y-81744050D03*
X159559638Y-80934412D03*
%TD*%
%TO.C,D97*%
X163750000Y-71744050D03*
X164559638Y-70934412D03*
%TD*%
%TO.C,D131*%
X158750000Y-79244050D03*
X159559638Y-78434412D03*
%TD*%
%TO.C,D5*%
X143750000Y-54244050D03*
X144559638Y-53434412D03*
%TD*%
%TO.C,D132*%
X161250000Y-79244050D03*
X162059638Y-78434412D03*
%TD*%
%TO.C,D94*%
X156250000Y-71744050D03*
X157059638Y-70934412D03*
%TD*%
%TO.C,D140*%
X151250000Y-81744050D03*
X152059638Y-80934412D03*
%TD*%
%TO.C,D56*%
X151250000Y-64244050D03*
X152059638Y-63434412D03*
%TD*%
%TO.C,D121*%
X163750000Y-76744050D03*
X164559638Y-75934412D03*
%TD*%
%TO.C,D13*%
X163750000Y-54244050D03*
X164559638Y-53434412D03*
%TD*%
%TO.C,D18*%
X146250000Y-56744050D03*
X147059638Y-55934412D03*
%TD*%
%TO.C,D17*%
X143750000Y-56744050D03*
X144559638Y-55934412D03*
%TD*%
%TO.C,D139*%
X148750000Y-81744050D03*
X149559638Y-80934412D03*
%TD*%
%TO.C,D74*%
X136250000Y-69244050D03*
X137059638Y-68434412D03*
%TD*%
%TO.C,D34*%
X156250000Y-59244050D03*
X157059638Y-58434412D03*
%TD*%
%TO.C,D127*%
X148750000Y-79244050D03*
X149559638Y-78434412D03*
%TD*%
%TO.C,D128*%
X151250000Y-79244050D03*
X152059638Y-78434412D03*
%TD*%
D14*
%TO.C,R13*%
X168097500Y-66744050D03*
X166902500Y-66744050D03*
%TD*%
D12*
%TO.C,D87*%
X138750000Y-71744050D03*
X139559638Y-70934412D03*
%TD*%
%TO.C,D89*%
X143750000Y-71744050D03*
X144559638Y-70934412D03*
%TD*%
%TO.C,D93*%
X153750000Y-71744050D03*
X154559638Y-70934412D03*
%TD*%
%TO.C,D7*%
X148750000Y-54244050D03*
X149559638Y-53434412D03*
%TD*%
%TO.C,D27*%
X138750000Y-59244050D03*
X139559638Y-58434412D03*
%TD*%
D14*
%TO.C,R8*%
X168097500Y-54244050D03*
X166902500Y-54244050D03*
%TD*%
D12*
%TO.C,D73*%
X163750000Y-66744050D03*
X164559638Y-65934412D03*
%TD*%
%TO.C,D142*%
X156250000Y-81744050D03*
X157059638Y-80934412D03*
%TD*%
%TO.C,D69*%
X153750000Y-66744050D03*
X154559638Y-65934412D03*
%TD*%
%TO.C,D108*%
X161250000Y-74244050D03*
X162059638Y-73434412D03*
%TD*%
D21*
%TO.C,C1*%
X173000000Y-60317500D03*
X173000000Y-59182500D03*
%TD*%
D12*
%TO.C,D61*%
X163750000Y-64244050D03*
X164559638Y-63434412D03*
%TD*%
%TO.C,D51*%
X138750000Y-64244050D03*
X139559638Y-63434412D03*
%TD*%
%TO.C,D58*%
X156250000Y-64244050D03*
X157059638Y-63434412D03*
%TD*%
%TO.C,D52*%
X141250000Y-64244050D03*
X142059638Y-63434412D03*
%TD*%
%TO.C,D138*%
X146250000Y-81744050D03*
X147059638Y-80934412D03*
%TD*%
%TO.C,D50*%
X136250000Y-64244050D03*
X137059638Y-63434412D03*
%TD*%
%TO.C,D107*%
X158750000Y-74244050D03*
X159559638Y-73434412D03*
%TD*%
D16*
%TO.C,SW4*%
X153425000Y-87250000D03*
X157575000Y-87250000D03*
%TD*%
D12*
%TO.C,D111*%
X138750000Y-76744050D03*
X139559638Y-75934412D03*
%TD*%
%TO.C,D129*%
X153750000Y-79244050D03*
X154559638Y-78434412D03*
%TD*%
%TO.C,D67*%
X148750000Y-66744050D03*
X149559638Y-65934412D03*
%TD*%
%TO.C,D42*%
X146250000Y-61744050D03*
X147059638Y-60934412D03*
%TD*%
M02*
