%TF.GenerationSoftware,KiCad,Pcbnew,9.0.0*%
%TF.CreationDate,2025-12-20T00:19:53-05:00*%
%TF.ProjectId,BusinessCard,42757369-6e65-4737-9343-6172642e6b69,rev?*%
%TF.SameCoordinates,Original*%
%TF.FileFunction,Soldermask,Bot*%
%TF.FilePolarity,Negative*%
%FSLAX46Y46*%
G04 Gerber Fmt 4.6, Leading zero omitted, Abs format (unit mm)*
G04 Created by KiCad (PCBNEW 9.0.0) date 2025-12-20 00:19:53*
%MOMM*%
%LPD*%
G01*
G04 APERTURE LIST*
G04 Aperture macros list*
%AMRoundRect*
0 Rectangle with rounded corners*
0 $1 Rounding radius*
0 $2 $3 $4 $5 $6 $7 $8 $9 X,Y pos of 4 corners*
0 Add a 4 corners polygon primitive as box body*
4,1,4,$2,$3,$4,$5,$6,$7,$8,$9,$2,$3,0*
0 Add four circle primitives for the rounded corners*
1,1,$1+$1,$2,$3*
1,1,$1+$1,$4,$5*
1,1,$1+$1,$6,$7*
1,1,$1+$1,$8,$9*
0 Add four rect primitives between the rounded corners*
20,1,$1+$1,$2,$3,$4,$5,0*
20,1,$1+$1,$4,$5,$6,$7,0*
20,1,$1+$1,$6,$7,$8,$9,0*
20,1,$1+$1,$8,$9,$2,$3,0*%
G04 Aperture macros list end*
%ADD10RoundRect,0.150000X0.150000X-0.587500X0.150000X0.587500X-0.150000X0.587500X-0.150000X-0.587500X0*%
%ADD11RoundRect,0.112500X-0.112500X-0.237500X0.112500X-0.237500X0.112500X0.237500X-0.112500X0.237500X0*%
%ADD12RoundRect,0.375000X-0.625000X-0.375000X0.625000X-0.375000X0.625000X0.375000X-0.625000X0.375000X0*%
%ADD13RoundRect,0.500000X-0.500000X-1.400000X0.500000X-1.400000X0.500000X1.400000X-0.500000X1.400000X0*%
%ADD14RoundRect,0.150000X-0.150000X0.825000X-0.150000X-0.825000X0.150000X-0.825000X0.150000X0.825000X0*%
%ADD15C,6.400000*%
%ADD16R,1.600000X0.550000*%
%ADD17R,0.550000X1.600000*%
%ADD18RoundRect,0.075000X0.662500X0.075000X-0.662500X0.075000X-0.662500X-0.075000X0.662500X-0.075000X0*%
%ADD19RoundRect,0.075000X0.075000X0.662500X-0.075000X0.662500X-0.075000X-0.662500X0.075000X-0.662500X0*%
%ADD20RoundRect,0.100000X0.130000X0.100000X-0.130000X0.100000X-0.130000X-0.100000X0.130000X-0.100000X0*%
%ADD21RoundRect,0.250000X0.362500X1.075000X-0.362500X1.075000X-0.362500X-1.075000X0.362500X-1.075000X0*%
%ADD22RoundRect,0.135000X0.135000X0.185000X-0.135000X0.185000X-0.135000X-0.185000X0.135000X-0.185000X0*%
%ADD23RoundRect,0.250000X0.262500X0.450000X-0.262500X0.450000X-0.262500X-0.450000X0.262500X-0.450000X0*%
%ADD24RoundRect,0.250000X0.362500X1.425000X-0.362500X1.425000X-0.362500X-1.425000X0.362500X-1.425000X0*%
%ADD25RoundRect,0.250001X0.487499X2.399999X-0.487499X2.399999X-0.487499X-2.399999X0.487499X-2.399999X0*%
%ADD26RoundRect,0.250000X0.312500X0.625000X-0.312500X0.625000X-0.312500X-0.625000X0.312500X-0.625000X0*%
%ADD27RoundRect,0.200000X0.200000X0.275000X-0.200000X0.275000X-0.200000X-0.275000X0.200000X-0.275000X0*%
G04 APERTURE END LIST*
D10*
%TO.C,REF\u002A\u002A*%
X154700000Y-89687500D03*
X152800000Y-89687500D03*
X153750000Y-87812500D03*
%TD*%
D11*
%TO.C,REF\u002A\u002A*%
X153850000Y-113500000D03*
X155150000Y-113500000D03*
X154500000Y-115500000D03*
%TD*%
D12*
%TO.C,REF\u002A\u002A*%
X143380000Y-87050000D03*
X143380000Y-84750000D03*
X143380000Y-82450000D03*
D13*
X149680000Y-84750000D03*
%TD*%
D14*
%TO.C,REF\u002A\u002A*%
X142940000Y-90025000D03*
X144210000Y-90025000D03*
X145480000Y-90025000D03*
X146750000Y-90025000D03*
X148020000Y-90025000D03*
X149290000Y-90025000D03*
X150560000Y-90025000D03*
X150560000Y-94975000D03*
X149290000Y-94975000D03*
X148020000Y-94975000D03*
X146750000Y-94975000D03*
X145480000Y-94975000D03*
X144210000Y-94975000D03*
X142940000Y-94975000D03*
%TD*%
%TO.C,REF\u002A\u002A*%
X143000000Y-103500000D03*
X144270000Y-103500000D03*
X145540000Y-103500000D03*
X146810000Y-103500000D03*
X146810000Y-98550000D03*
X145540000Y-98550000D03*
X144270000Y-98550000D03*
X143000000Y-98550000D03*
%TD*%
D15*
%TO.C,REF\u002A\u002A*%
X139500000Y-132750000D03*
%TD*%
D16*
%TO.C,REF\u002A\u002A*%
X151750000Y-108200000D03*
X151750000Y-109000000D03*
X151750000Y-109800000D03*
X151750000Y-110600000D03*
X151750000Y-111400000D03*
X151750000Y-112200000D03*
X151750000Y-113000000D03*
X151750000Y-113800000D03*
D17*
X150300000Y-115250000D03*
X149500000Y-115250000D03*
X148700000Y-115250000D03*
X147900000Y-115250000D03*
X147100000Y-115250000D03*
X146300000Y-115250000D03*
X145500000Y-115250000D03*
X144700000Y-115250000D03*
D16*
X143250000Y-113800000D03*
X143250000Y-113000000D03*
X143250000Y-112200000D03*
X143250000Y-111400000D03*
X143250000Y-110600000D03*
X143250000Y-109800000D03*
X143250000Y-109000000D03*
X143250000Y-108200000D03*
D17*
X144700000Y-106750000D03*
X145500000Y-106750000D03*
X146300000Y-106750000D03*
X147100000Y-106750000D03*
X147900000Y-106750000D03*
X148700000Y-106750000D03*
X149500000Y-106750000D03*
X150300000Y-106750000D03*
%TD*%
D18*
%TO.C,REF\u002A\u002A*%
X168662500Y-115750000D03*
X168662500Y-116250000D03*
X168662500Y-116750000D03*
X168662500Y-117250000D03*
X168662500Y-117750000D03*
X168662500Y-118250000D03*
X168662500Y-118750000D03*
X168662500Y-119250000D03*
X168662500Y-119750000D03*
X168662500Y-120250000D03*
X168662500Y-120750000D03*
X168662500Y-121250000D03*
X168662500Y-121750000D03*
X168662500Y-122250000D03*
X168662500Y-122750000D03*
X168662500Y-123250000D03*
D19*
X166750000Y-125162500D03*
X166250000Y-125162500D03*
X165750000Y-125162500D03*
X165250000Y-125162500D03*
X164750000Y-125162500D03*
X164250000Y-125162500D03*
X163750000Y-125162500D03*
X163250000Y-125162500D03*
X162750000Y-125162500D03*
X162250000Y-125162500D03*
X161750000Y-125162500D03*
X161250000Y-125162500D03*
X160750000Y-125162500D03*
X160250000Y-125162500D03*
X159750000Y-125162500D03*
X159250000Y-125162500D03*
D18*
X157337500Y-123250000D03*
X157337500Y-122750000D03*
X157337500Y-122250000D03*
X157337500Y-121750000D03*
X157337500Y-121250000D03*
X157337500Y-120750000D03*
X157337500Y-120250000D03*
X157337500Y-119750000D03*
X157337500Y-119250000D03*
X157337500Y-118750000D03*
X157337500Y-118250000D03*
X157337500Y-117750000D03*
X157337500Y-117250000D03*
X157337500Y-116750000D03*
X157337500Y-116250000D03*
X157337500Y-115750000D03*
D19*
X159250000Y-113837500D03*
X159750000Y-113837500D03*
X160250000Y-113837500D03*
X160750000Y-113837500D03*
X161250000Y-113837500D03*
X161750000Y-113837500D03*
X162250000Y-113837500D03*
X162750000Y-113837500D03*
X163250000Y-113837500D03*
X163750000Y-113837500D03*
X164250000Y-113837500D03*
X164750000Y-113837500D03*
X165250000Y-113837500D03*
X165750000Y-113837500D03*
X166250000Y-113837500D03*
X166750000Y-113837500D03*
%TD*%
D20*
%TO.C,REF\u002A\u002A*%
X180520000Y-115000000D03*
X179880000Y-115000000D03*
%TD*%
D21*
%TO.C,REF\u002A\u002A*%
X180212500Y-124900000D03*
X175587500Y-124900000D03*
%TD*%
D22*
%TO.C,REF\u002A\u002A*%
X180510000Y-116500000D03*
X179490000Y-116500000D03*
%TD*%
D23*
%TO.C,REF\u002A\u002A*%
X180312500Y-120000000D03*
X178487500Y-120000000D03*
%TD*%
D24*
%TO.C,REF\u002A\u002A*%
X180212500Y-128500000D03*
X174287500Y-128500000D03*
%TD*%
D25*
%TO.C,REF\u002A\u002A*%
X180125000Y-133500000D03*
X170500000Y-133500000D03*
%TD*%
D26*
%TO.C,REF\u002A\u002A*%
X180262500Y-122100000D03*
X177337500Y-122100000D03*
%TD*%
D18*
%TO.C,REF\u002A\u002A*%
X166162500Y-128750000D03*
X166162500Y-129250000D03*
X166162500Y-129750000D03*
X166162500Y-130250000D03*
X166162500Y-130750000D03*
X166162500Y-131250000D03*
X166162500Y-131750000D03*
X166162500Y-132250000D03*
X166162500Y-132750000D03*
X166162500Y-133250000D03*
X166162500Y-133750000D03*
X166162500Y-134250000D03*
D19*
X164750000Y-135662500D03*
X164250000Y-135662500D03*
X163750000Y-135662500D03*
X163250000Y-135662500D03*
X162750000Y-135662500D03*
X162250000Y-135662500D03*
X161750000Y-135662500D03*
X161250000Y-135662500D03*
X160750000Y-135662500D03*
X160250000Y-135662500D03*
X159750000Y-135662500D03*
X159250000Y-135662500D03*
D18*
X157837500Y-134250000D03*
X157837500Y-133750000D03*
X157837500Y-133250000D03*
X157837500Y-132750000D03*
X157837500Y-132250000D03*
X157837500Y-131750000D03*
X157837500Y-131250000D03*
X157837500Y-130750000D03*
X157837500Y-130250000D03*
X157837500Y-129750000D03*
X157837500Y-129250000D03*
X157837500Y-128750000D03*
D19*
X159250000Y-127337500D03*
X159750000Y-127337500D03*
X160250000Y-127337500D03*
X160750000Y-127337500D03*
X161250000Y-127337500D03*
X161750000Y-127337500D03*
X162250000Y-127337500D03*
X162750000Y-127337500D03*
X163250000Y-127337500D03*
X163750000Y-127337500D03*
X164250000Y-127337500D03*
X164750000Y-127337500D03*
%TD*%
D27*
%TO.C,REF\u002A\u002A*%
X180370000Y-118000000D03*
X178720000Y-118000000D03*
%TD*%
M02*
