M48
; DRILL file {KiCad 9.0.0} date 2025-12-20T00:20:19-0500
; FORMAT={-:-/ absolute / metric / decimal}
; #@! TF.CreationDate,2025-12-20T00:20:19-05:00
; #@! TF.GenerationSoftware,Kicad,Pcbnew,9.0.0
; #@! TF.FileFunction,Plated,1,2,PTH
FMAT,2
METRIC
; #@! TA.AperFunction,Plated,PTH,ViaDrill
T1C0.300
; #@! TA.AperFunction,Plated,PTH,ComponentDrill
T2C3.200
%
G90
G05
T1
X137.5Y-52.5
X137.5Y-55.0
X137.5Y-57.5
X137.5Y-60.0
X137.5Y-62.5
X137.5Y-65.0
X137.5Y-67.5
X137.5Y-70.0
X137.5Y-72.5
X137.5Y-75.0
X137.5Y-77.5
X137.5Y-80.0
X140.0Y-52.5
X140.0Y-55.0
X140.0Y-57.5
X140.0Y-60.0
X140.0Y-62.5
X140.0Y-65.0
X140.0Y-67.5
X140.0Y-70.0
X140.0Y-72.5
X140.0Y-75.0
X140.0Y-77.5
X140.0Y-80.0
X142.5Y-52.5
X142.5Y-55.0
X142.5Y-57.5
X142.5Y-60.0
X142.5Y-62.5
X142.5Y-65.0
X142.5Y-67.5
X142.5Y-70.0
X142.5Y-72.5
X142.5Y-75.0
X142.5Y-77.5
X142.5Y-80.0
X145.0Y-52.5
X145.0Y-55.0
X145.0Y-57.5
X145.0Y-60.0
X145.0Y-62.5
X145.0Y-65.0
X145.0Y-67.5
X145.0Y-70.0
X145.0Y-72.5
X145.0Y-75.0
X145.0Y-77.5
X145.0Y-80.0
X146.25Y-87.25
X147.5Y-52.5
X147.5Y-55.0
X147.5Y-57.5
X147.5Y-60.0
X147.5Y-62.5
X147.5Y-65.0
X147.5Y-67.5
X147.5Y-70.0
X147.5Y-72.5
X147.5Y-75.0
X147.5Y-77.5
X147.5Y-80.0
X150.0Y-52.5
X150.0Y-55.0
X150.0Y-57.5
X150.0Y-60.0
X150.0Y-62.5
X150.0Y-65.0
X150.0Y-67.5
X150.0Y-70.0
X150.0Y-72.5
X150.0Y-75.0
X150.0Y-77.5
X150.0Y-80.0
X152.5Y-52.5
X152.5Y-55.0
X152.5Y-57.5
X152.5Y-60.0
X152.5Y-62.5
X152.5Y-65.0
X152.5Y-67.5
X152.5Y-70.0
X152.5Y-72.5
X152.5Y-75.0
X152.5Y-77.5
X152.5Y-80.0
X153.75Y-84.75
X153.75Y-89.75
X155.0Y-52.5
X155.0Y-55.0
X155.0Y-57.5
X155.0Y-60.0
X155.0Y-62.5
X155.0Y-65.0
X155.0Y-67.5
X155.0Y-70.0
X155.0Y-72.5
X155.0Y-75.0
X155.0Y-77.5
X155.0Y-80.0
X157.5Y-52.5
X157.5Y-55.0
X157.5Y-57.5
X157.5Y-60.0
X157.5Y-62.5
X157.5Y-65.0
X157.5Y-67.5
X157.5Y-70.0
X157.5Y-72.5
X157.5Y-75.0
X157.5Y-77.5
X157.5Y-80.0
X160.0Y-52.5
X160.0Y-55.0
X160.0Y-57.5
X160.0Y-60.0
X160.0Y-62.5
X160.0Y-65.0
X160.0Y-67.5
X160.0Y-70.0
X160.0Y-72.5
X160.0Y-75.0
X160.0Y-77.5
X160.0Y-80.0
X161.5Y-87.25
X162.5Y-52.5
X162.5Y-55.0
X162.5Y-57.5
X162.5Y-60.0
X162.5Y-62.5
X162.5Y-65.0
X162.5Y-67.5
X162.5Y-70.0
X162.5Y-72.5
X162.5Y-75.0
X162.5Y-77.5
X162.5Y-80.0
X165.0Y-52.5
X165.0Y-55.0
X165.0Y-57.5
X165.0Y-60.0
X165.0Y-62.5
X165.0Y-65.0
X165.0Y-67.5
X165.0Y-70.0
X165.0Y-72.5
X165.0Y-75.0
X165.0Y-77.5
X165.0Y-80.0
X168.6Y-55.4
X168.6Y-62.8
X168.6Y-65.4
X168.6Y-68.0
X168.85Y-57.55
X168.85Y-58.25
X169.972Y-68.472
X171.2Y-69.0
X172.25Y-75.0
X172.65Y-76.15
X173.0Y-54.0
X173.0Y-77.0
X173.2Y-72.8
X173.75Y-58.35
X174.5Y-54.0
X174.528Y-58.35
X176.1Y-53.8
X176.25Y-58.25
X176.75Y-74.0
X176.982Y-75.5
X177.0Y-58.0
X177.01Y-76.25
X177.25Y-73.25
X177.717Y-72.466
X177.75Y-58.25
X178.25Y-88.5
X178.5Y-58.0
X179.22Y-57.03
X179.25Y-58.25
X179.45Y-53.25
X179.986Y-73.736
X180.5Y-59.0
X180.75Y-53.25
X180.95Y-71.88
X181.0Y-100.75
X181.3Y-55.55
X182.5Y-77.0
X183.0Y-58.5
X183.0Y-90.0
X183.44Y-78.95
X184.049Y-54.997
T2
X139.5Y-132.75
M30
