%TF.GenerationSoftware,KiCad,Pcbnew,9.0.0*%
%TF.CreationDate,2025-12-23T16:07:17-05:00*%
%TF.ProjectId,BusinessCard,42757369-6e65-4737-9343-6172642e6b69,rev?*%
%TF.SameCoordinates,Original*%
%TF.FileFunction,Paste,Top*%
%TF.FilePolarity,Positive*%
%FSLAX46Y46*%
G04 Gerber Fmt 4.6, Leading zero omitted, Abs format (unit mm)*
G04 Created by KiCad (PCBNEW 9.0.0) date 2025-12-23 16:07:17*
%MOMM*%
%LPD*%
G01*
G04 APERTURE LIST*
G04 Aperture macros list*
%AMRoundRect*
0 Rectangle with rounded corners*
0 $1 Rounding radius*
0 $2 $3 $4 $5 $6 $7 $8 $9 X,Y pos of 4 corners*
0 Add a 4 corners polygon primitive as box body*
4,1,4,$2,$3,$4,$5,$6,$7,$8,$9,$2,$3,0*
0 Add four circle primitives for the rounded corners*
1,1,$1+$1,$2,$3*
1,1,$1+$1,$4,$5*
1,1,$1+$1,$6,$7*
1,1,$1+$1,$8,$9*
0 Add four rect primitives between the rounded corners*
20,1,$1+$1,$2,$3,$4,$5,0*
20,1,$1+$1,$4,$5,$6,$7,0*
20,1,$1+$1,$6,$7,$8,$9,0*
20,1,$1+$1,$8,$9,$2,$3,0*%
G04 Aperture macros list end*
%ADD10RoundRect,0.218750X0.026517X-0.335876X0.335876X-0.026517X-0.026517X0.335876X-0.335876X0.026517X0*%
%ADD11R,0.950000X1.400000*%
%ADD12RoundRect,0.160000X0.197500X0.160000X-0.197500X0.160000X-0.197500X-0.160000X0.197500X-0.160000X0*%
%ADD13RoundRect,0.160000X-0.197500X-0.160000X0.197500X-0.160000X0.197500X0.160000X-0.197500X0.160000X0*%
%ADD14RoundRect,0.160000X-0.160000X0.197500X-0.160000X-0.197500X0.160000X-0.197500X0.160000X0.197500X0*%
%ADD15RoundRect,0.155000X-0.155000X0.212500X-0.155000X-0.212500X0.155000X-0.212500X0.155000X0.212500X0*%
%ADD16RoundRect,0.200000X-0.800000X-1.550000X0.800000X-1.550000X0.800000X1.550000X-0.800000X1.550000X0*%
%ADD17C,1.000000*%
%ADD18RoundRect,0.155000X0.212500X0.155000X-0.212500X0.155000X-0.212500X-0.155000X0.212500X-0.155000X0*%
%ADD19RoundRect,0.155000X-0.212500X-0.155000X0.212500X-0.155000X0.212500X0.155000X-0.212500X0.155000X0*%
%ADD20RoundRect,0.155000X0.155000X-0.212500X0.155000X0.212500X-0.155000X0.212500X-0.155000X-0.212500X0*%
%ADD21RoundRect,0.070000X-0.710000X-0.070000X0.710000X-0.070000X0.710000X0.070000X-0.710000X0.070000X0*%
%ADD22RoundRect,0.070000X-0.070000X-0.710000X0.070000X-0.710000X0.070000X0.710000X-0.070000X0.710000X0*%
%ADD23RoundRect,0.112500X0.112500X-0.187500X0.112500X0.187500X-0.112500X0.187500X-0.112500X-0.187500X0*%
G04 APERTURE END LIST*
D10*
%TO.C,D105*%
X38683758Y-46396078D03*
X39797452Y-45282384D03*
%TD*%
D11*
%TO.C,SW1*%
X31010786Y-56750000D03*
X35160786Y-56750000D03*
%TD*%
D10*
%TO.C,D6*%
X31183758Y-26396078D03*
X32297452Y-25282384D03*
%TD*%
%TO.C,D15*%
X23683758Y-28896078D03*
X24797452Y-27782384D03*
%TD*%
%TO.C,D95*%
X43683758Y-43896078D03*
X44797452Y-42782384D03*
%TD*%
%TO.C,D126*%
X31183758Y-51396078D03*
X32297452Y-50282384D03*
%TD*%
%TO.C,D58*%
X41183758Y-36396078D03*
X42297452Y-35282384D03*
%TD*%
%TO.C,D128*%
X36183758Y-51396078D03*
X37297452Y-50282384D03*
%TD*%
%TO.C,D81*%
X38683758Y-41396078D03*
X39797452Y-40282384D03*
%TD*%
%TO.C,D101*%
X28683758Y-46396078D03*
X29797452Y-45282384D03*
%TD*%
%TO.C,D10*%
X41183758Y-26396078D03*
X42297452Y-25282384D03*
%TD*%
%TO.C,D38*%
X21183758Y-33896078D03*
X22297452Y-32782384D03*
%TD*%
%TO.C,D30*%
X31183758Y-31396078D03*
X32297452Y-30282384D03*
%TD*%
%TO.C,D48*%
X46183758Y-33896078D03*
X47297452Y-32782384D03*
%TD*%
%TO.C,D31*%
X33683758Y-31396078D03*
X34797452Y-30282384D03*
%TD*%
%TO.C,D56*%
X36183758Y-36396078D03*
X37297452Y-35282384D03*
%TD*%
D12*
%TO.C,R12*%
X52347500Y-34500000D03*
X51152500Y-34500000D03*
%TD*%
D10*
%TO.C,D93*%
X38683758Y-43896078D03*
X39797452Y-42782384D03*
%TD*%
D12*
%TO.C,R10*%
X52347500Y-29500000D03*
X51152500Y-29500000D03*
%TD*%
D10*
%TO.C,D86*%
X21183758Y-43896078D03*
X22297452Y-42782384D03*
%TD*%
%TO.C,D135*%
X23683758Y-53896078D03*
X24797452Y-52782384D03*
%TD*%
D13*
%TO.C,R6*%
X61065786Y-60500000D03*
X62260786Y-60500000D03*
%TD*%
D10*
%TO.C,D118*%
X41183758Y-48896078D03*
X42297452Y-47782384D03*
%TD*%
%TO.C,D94*%
X41183758Y-43896078D03*
X42297452Y-42782384D03*
%TD*%
%TO.C,D12*%
X46183758Y-26396078D03*
X47297452Y-25282384D03*
%TD*%
D12*
%TO.C,R15*%
X52347500Y-42000000D03*
X51152500Y-42000000D03*
%TD*%
D10*
%TO.C,D136*%
X26183758Y-53896078D03*
X27297452Y-52782384D03*
%TD*%
%TO.C,D134*%
X21183758Y-53896078D03*
X22297452Y-52782384D03*
%TD*%
D14*
%TO.C,R1*%
X60750000Y-27902500D03*
X60750000Y-29097500D03*
%TD*%
D10*
%TO.C,D100*%
X26183758Y-46396078D03*
X27297452Y-45282384D03*
%TD*%
D15*
%TO.C,C4*%
X56000000Y-36682500D03*
X56000000Y-37817500D03*
%TD*%
D10*
%TO.C,D41*%
X28683758Y-33896078D03*
X29797452Y-32782384D03*
%TD*%
D12*
%TO.C,R16*%
X52347500Y-44500000D03*
X51152500Y-44500000D03*
%TD*%
D10*
%TO.C,D83*%
X43683758Y-41396078D03*
X44797452Y-40282384D03*
%TD*%
%TO.C,D113*%
X28683758Y-48896078D03*
X29797452Y-47782384D03*
%TD*%
%TO.C,D53*%
X28683758Y-36396078D03*
X29797452Y-35282384D03*
%TD*%
%TO.C,D99*%
X23683758Y-46396078D03*
X24797452Y-45282384D03*
%TD*%
%TO.C,D7*%
X33683758Y-26396078D03*
X34797452Y-25282384D03*
%TD*%
D11*
%TO.C,SW5*%
X55435786Y-60500000D03*
X59585786Y-60500000D03*
%TD*%
D10*
%TO.C,D106*%
X41183758Y-46396078D03*
X42297452Y-45282384D03*
%TD*%
%TO.C,D25*%
X48683758Y-28896078D03*
X49797452Y-27782384D03*
%TD*%
D12*
%TO.C,R17*%
X52347500Y-47000000D03*
X51152500Y-47000000D03*
%TD*%
D10*
%TO.C,D39*%
X23683758Y-33896078D03*
X24797452Y-32782384D03*
%TD*%
%TO.C,D22*%
X41183758Y-28896078D03*
X42297452Y-27782384D03*
%TD*%
D11*
%TO.C,SW2*%
X23510786Y-59250000D03*
X27660786Y-59250000D03*
%TD*%
D16*
%TO.C,J3*%
X32835786Y-72750000D03*
X64335786Y-72750000D03*
%TD*%
D10*
%TO.C,D144*%
X46183758Y-53896078D03*
X47297452Y-52782384D03*
%TD*%
D13*
%TO.C,R5*%
X44140786Y-59250000D03*
X45335786Y-59250000D03*
%TD*%
D10*
%TO.C,D79*%
X33683758Y-41396078D03*
X34797452Y-40282384D03*
%TD*%
%TO.C,D49*%
X48683758Y-33896078D03*
X49797452Y-32782384D03*
%TD*%
%TO.C,D125*%
X28683758Y-51396078D03*
X29797452Y-50282384D03*
%TD*%
%TO.C,D69*%
X38683758Y-38896078D03*
X39797452Y-37782384D03*
%TD*%
%TO.C,D73*%
X48683758Y-38896078D03*
X49797452Y-37782384D03*
%TD*%
%TO.C,D82*%
X41183758Y-41396078D03*
X42297452Y-40282384D03*
%TD*%
D17*
%TO.C,J1*%
X69585786Y-50500000D03*
X69585786Y-49250000D03*
X69585786Y-48000000D03*
%TD*%
D10*
%TO.C,D23*%
X43683758Y-28896078D03*
X44797452Y-27782384D03*
%TD*%
%TO.C,D8*%
X36183758Y-26396078D03*
X37297452Y-25282384D03*
%TD*%
%TO.C,D120*%
X46183758Y-48896078D03*
X47297452Y-47782384D03*
%TD*%
%TO.C,D35*%
X43683758Y-31396078D03*
X44797452Y-30282384D03*
%TD*%
%TO.C,D26*%
X21183758Y-31396078D03*
X22297452Y-30282384D03*
%TD*%
%TO.C,D76*%
X26183758Y-41396078D03*
X27297452Y-40282384D03*
%TD*%
D13*
%TO.C,R4*%
X29085786Y-59250000D03*
X30280786Y-59250000D03*
%TD*%
D10*
%TO.C,D75*%
X23683758Y-41396078D03*
X24797452Y-40282384D03*
%TD*%
D17*
%TO.C,J2*%
X59710786Y-24250000D03*
X60960786Y-24250000D03*
X62210786Y-24250000D03*
X63460786Y-24250000D03*
%TD*%
D10*
%TO.C,D54*%
X31183758Y-36396078D03*
X32297452Y-35282384D03*
%TD*%
D12*
%TO.C,R8*%
X52347500Y-24500000D03*
X51152500Y-24500000D03*
%TD*%
D10*
%TO.C,D27*%
X23683758Y-31396078D03*
X24797452Y-30282384D03*
%TD*%
%TO.C,D34*%
X41183758Y-31396078D03*
X42297452Y-30282384D03*
%TD*%
%TO.C,D47*%
X43683758Y-33896078D03*
X44797452Y-32782384D03*
%TD*%
%TO.C,D52*%
X26183758Y-36396078D03*
X27297452Y-35282384D03*
%TD*%
%TO.C,D124*%
X26183758Y-51396078D03*
X27297452Y-50282384D03*
%TD*%
%TO.C,D119*%
X43683758Y-48896078D03*
X44797452Y-47782384D03*
%TD*%
%TO.C,D71*%
X43683758Y-38896078D03*
X44797452Y-37782384D03*
%TD*%
%TO.C,D114*%
X31183758Y-48896078D03*
X32297452Y-47782384D03*
%TD*%
D18*
%TO.C,C3*%
X65385000Y-42500000D03*
X64250000Y-42500000D03*
%TD*%
D10*
%TO.C,D121*%
X48683758Y-48896078D03*
X49797452Y-47782384D03*
%TD*%
%TO.C,D133*%
X48683758Y-51396078D03*
X49797452Y-50282384D03*
%TD*%
%TO.C,D68*%
X36183758Y-38896078D03*
X37297452Y-37782384D03*
%TD*%
%TO.C,D80*%
X36183758Y-41396078D03*
X37297452Y-40282384D03*
%TD*%
D19*
%TO.C,C2*%
X66518286Y-33000000D03*
X67653286Y-33000000D03*
%TD*%
D10*
%TO.C,D9*%
X38683758Y-26396078D03*
X39797452Y-25282384D03*
%TD*%
%TO.C,D109*%
X48683758Y-46396078D03*
X49797452Y-45282384D03*
%TD*%
%TO.C,D97*%
X48683758Y-43896078D03*
X49797452Y-42782384D03*
%TD*%
%TO.C,D16*%
X26183758Y-28896078D03*
X27297452Y-27782384D03*
%TD*%
%TO.C,D46*%
X41183758Y-33896078D03*
X42297452Y-32782384D03*
%TD*%
%TO.C,D21*%
X38683758Y-28896078D03*
X39797452Y-27782384D03*
%TD*%
%TO.C,D91*%
X33683758Y-43896078D03*
X34797452Y-42782384D03*
%TD*%
%TO.C,D84*%
X46183758Y-41396078D03*
X47297452Y-40282384D03*
%TD*%
%TO.C,D103*%
X33683758Y-46396078D03*
X34797452Y-45282384D03*
%TD*%
%TO.C,D90*%
X31183758Y-43896078D03*
X32297452Y-42782384D03*
%TD*%
D18*
%TO.C,C5*%
X48750000Y-59250000D03*
X47615000Y-59250000D03*
%TD*%
D10*
%TO.C,D2*%
X21183758Y-26396078D03*
X22297452Y-25282384D03*
%TD*%
%TO.C,D138*%
X31183758Y-53896078D03*
X32297452Y-52782384D03*
%TD*%
%TO.C,D74*%
X21183758Y-41396078D03*
X22297452Y-40282384D03*
%TD*%
%TO.C,D66*%
X31183758Y-38896078D03*
X32297452Y-37782384D03*
%TD*%
%TO.C,D11*%
X43683758Y-26396078D03*
X44797452Y-25282384D03*
%TD*%
%TO.C,D57*%
X38683758Y-36396078D03*
X39797452Y-35282384D03*
%TD*%
D11*
%TO.C,SW6*%
X61435786Y-63000000D03*
X65585786Y-63000000D03*
%TD*%
D10*
%TO.C,D132*%
X46183758Y-51396078D03*
X47297452Y-50282384D03*
%TD*%
%TO.C,D107*%
X43683758Y-46396078D03*
X44797452Y-45282384D03*
%TD*%
D12*
%TO.C,R11*%
X52347500Y-32000000D03*
X51152500Y-32000000D03*
%TD*%
D10*
%TO.C,D123*%
X23683758Y-51396078D03*
X24797452Y-50282384D03*
%TD*%
%TO.C,D89*%
X28683758Y-43896078D03*
X29797452Y-42782384D03*
%TD*%
%TO.C,D44*%
X36183758Y-33896078D03*
X37297452Y-32782384D03*
%TD*%
%TO.C,D77*%
X28683758Y-41396078D03*
X29797452Y-40282384D03*
%TD*%
%TO.C,D29*%
X28683758Y-31396078D03*
X29797452Y-30282384D03*
%TD*%
%TO.C,D13*%
X48683758Y-26396078D03*
X49797452Y-25282384D03*
%TD*%
%TO.C,D88*%
X26183758Y-43896078D03*
X27297452Y-42782384D03*
%TD*%
%TO.C,D19*%
X33683758Y-28896078D03*
X34797452Y-27782384D03*
%TD*%
D12*
%TO.C,R9*%
X52347500Y-27000000D03*
X51152500Y-27000000D03*
%TD*%
D10*
%TO.C,D116*%
X36183758Y-48896078D03*
X37297452Y-47782384D03*
%TD*%
%TO.C,D18*%
X31183758Y-28896078D03*
X32297452Y-27782384D03*
%TD*%
%TO.C,D85*%
X48683758Y-41396078D03*
X49797452Y-40282384D03*
%TD*%
%TO.C,D61*%
X48683758Y-36396078D03*
X49797452Y-35282384D03*
%TD*%
D13*
%TO.C,R3*%
X36738286Y-61750000D03*
X37933286Y-61750000D03*
%TD*%
D10*
%TO.C,D111*%
X23683758Y-48896078D03*
X24797452Y-47782384D03*
%TD*%
%TO.C,D70*%
X41183758Y-38896078D03*
X42297452Y-37782384D03*
%TD*%
%TO.C,D40*%
X26183758Y-33896078D03*
X27297452Y-32782384D03*
%TD*%
%TO.C,D55*%
X33683758Y-36396078D03*
X34797452Y-35282384D03*
%TD*%
%TO.C,D117*%
X38683758Y-48896078D03*
X39797452Y-47782384D03*
%TD*%
%TO.C,D32*%
X36183758Y-31396078D03*
X37297452Y-30282384D03*
%TD*%
%TO.C,D5*%
X28683758Y-26396078D03*
X29797452Y-25282384D03*
%TD*%
%TO.C,D43*%
X33683758Y-33896078D03*
X34797452Y-32782384D03*
%TD*%
%TO.C,D130*%
X41183758Y-51396078D03*
X42297452Y-50282384D03*
%TD*%
%TO.C,D104*%
X36183758Y-46396078D03*
X37297452Y-45282384D03*
%TD*%
D13*
%TO.C,R2*%
X36688286Y-56750000D03*
X37883286Y-56750000D03*
%TD*%
D10*
%TO.C,D63*%
X23683758Y-38896078D03*
X24797452Y-37782384D03*
%TD*%
D20*
%TO.C,C1*%
X58085786Y-32317500D03*
X58085786Y-31182500D03*
%TD*%
D11*
%TO.C,SW4*%
X38510786Y-59250000D03*
X42660786Y-59250000D03*
%TD*%
D10*
%TO.C,D143*%
X43683758Y-53896078D03*
X44797452Y-52782384D03*
%TD*%
%TO.C,D33*%
X38683758Y-31396078D03*
X39797452Y-30282384D03*
%TD*%
%TO.C,D17*%
X28683758Y-28896078D03*
X29797452Y-27782384D03*
%TD*%
%TO.C,D72*%
X46183758Y-38896078D03*
X47297452Y-37782384D03*
%TD*%
%TO.C,D131*%
X43683758Y-51396078D03*
X44797452Y-50282384D03*
%TD*%
%TO.C,D129*%
X38683758Y-51396078D03*
X39797452Y-50282384D03*
%TD*%
%TO.C,D51*%
X23683758Y-36396078D03*
X24797452Y-35282384D03*
%TD*%
D12*
%TO.C,R14*%
X52347500Y-39500000D03*
X51152500Y-39500000D03*
%TD*%
%TO.C,R13*%
X52347500Y-37000000D03*
X51152500Y-37000000D03*
%TD*%
D10*
%TO.C,D141*%
X38683758Y-53896078D03*
X39797452Y-52782384D03*
%TD*%
%TO.C,D59*%
X43683758Y-36396078D03*
X44797452Y-35282384D03*
%TD*%
%TO.C,D3*%
X23683758Y-26396078D03*
X24797452Y-25282384D03*
%TD*%
%TO.C,D28*%
X26183758Y-31396078D03*
X27297452Y-30282384D03*
%TD*%
%TO.C,D36*%
X46183758Y-31396078D03*
X47297452Y-30282384D03*
%TD*%
D12*
%TO.C,R18*%
X52347500Y-49500000D03*
X51152500Y-49500000D03*
%TD*%
D10*
%TO.C,D4*%
X26183758Y-26396078D03*
X27297452Y-25282384D03*
%TD*%
%TO.C,D20*%
X36183758Y-28896078D03*
X37297452Y-27782384D03*
%TD*%
%TO.C,D112*%
X26183758Y-48896078D03*
X27297452Y-47782384D03*
%TD*%
%TO.C,D96*%
X46183758Y-43896078D03*
X47297452Y-42782384D03*
%TD*%
%TO.C,D78*%
X31183758Y-41396078D03*
X32297452Y-40282384D03*
%TD*%
%TO.C,D139*%
X33683758Y-53896078D03*
X34797452Y-52782384D03*
%TD*%
%TO.C,D102*%
X31183758Y-46396078D03*
X32297452Y-45282384D03*
%TD*%
%TO.C,D60*%
X46183758Y-36396078D03*
X47297452Y-35282384D03*
%TD*%
%TO.C,D127*%
X33683758Y-51396078D03*
X34797452Y-50282384D03*
%TD*%
%TO.C,D115*%
X33683758Y-48896078D03*
X34797452Y-47782384D03*
%TD*%
%TO.C,D137*%
X28683758Y-53896078D03*
X29797452Y-52782384D03*
%TD*%
%TO.C,D45*%
X38683758Y-33896078D03*
X39797452Y-32782384D03*
%TD*%
%TO.C,D42*%
X31183758Y-33896078D03*
X32297452Y-32782384D03*
%TD*%
%TO.C,D145*%
X48683758Y-53896078D03*
X49797452Y-52782384D03*
%TD*%
%TO.C,D122*%
X21183758Y-51396078D03*
X22297452Y-50282384D03*
%TD*%
%TO.C,D110*%
X21183758Y-48896078D03*
X22297452Y-47782384D03*
%TD*%
%TO.C,D98*%
X21183758Y-46396078D03*
X22297452Y-45282384D03*
%TD*%
%TO.C,D62*%
X21183758Y-38896078D03*
X22297452Y-37782384D03*
%TD*%
%TO.C,D24*%
X46183758Y-28896078D03*
X47297452Y-27782384D03*
%TD*%
%TO.C,D37*%
X48683758Y-31396078D03*
X49797452Y-30282384D03*
%TD*%
%TO.C,D92*%
X36183758Y-43896078D03*
X37297452Y-42782384D03*
%TD*%
%TO.C,D64*%
X26183758Y-38896078D03*
X27297452Y-37782384D03*
%TD*%
%TO.C,D140*%
X36183758Y-53896078D03*
X37297452Y-52782384D03*
%TD*%
%TO.C,D14*%
X21183758Y-28896078D03*
X22297452Y-27782384D03*
%TD*%
%TO.C,D50*%
X21183758Y-36396078D03*
X22297452Y-35282384D03*
%TD*%
D11*
%TO.C,SW3*%
X31010786Y-61750000D03*
X35160786Y-61750000D03*
%TD*%
D12*
%TO.C,R19*%
X52347500Y-52000000D03*
X51152500Y-52000000D03*
%TD*%
D10*
%TO.C,D65*%
X28683758Y-38896078D03*
X29797452Y-37782384D03*
%TD*%
%TO.C,D67*%
X33683758Y-38896078D03*
X34797452Y-37782384D03*
%TD*%
D13*
%TO.C,R7*%
X67065786Y-63000000D03*
X68260786Y-63000000D03*
%TD*%
D10*
%TO.C,D108*%
X46183758Y-46396078D03*
X47297452Y-45282384D03*
%TD*%
D21*
%TO.C,U1*%
X57585786Y-34000000D03*
X57585786Y-34500000D03*
X57585786Y-35000000D03*
X57585786Y-35500000D03*
X57585786Y-36000000D03*
X57585786Y-36500000D03*
X57585786Y-37000000D03*
X57585786Y-37500000D03*
X57585786Y-38000000D03*
X57585786Y-38500000D03*
X57585786Y-39000000D03*
X57585786Y-39500000D03*
D22*
X59015786Y-40930000D03*
X59515786Y-40930000D03*
X60015786Y-40930000D03*
X60515786Y-40930000D03*
X61015786Y-40930000D03*
X61515786Y-40930000D03*
X62015786Y-40930000D03*
X62515786Y-40930000D03*
X63015786Y-40930000D03*
X63515786Y-40930000D03*
X64015786Y-40930000D03*
X64515786Y-40930000D03*
D21*
X65945786Y-39500000D03*
X65945786Y-39000000D03*
X65945786Y-38500000D03*
X65945786Y-38000000D03*
X65945786Y-37500000D03*
X65945786Y-37000000D03*
X65945786Y-36500000D03*
X65945786Y-36000000D03*
X65945786Y-35500000D03*
X65945786Y-35000000D03*
X65945786Y-34500000D03*
X65945786Y-34000000D03*
D22*
X64515786Y-32570000D03*
X64015786Y-32570000D03*
X63515786Y-32570000D03*
X63015786Y-32570000D03*
X62515786Y-32570000D03*
X62015786Y-32570000D03*
X61515786Y-32570000D03*
X61015786Y-32570000D03*
X60515786Y-32570000D03*
X60015786Y-32570000D03*
X59515786Y-32570000D03*
X59015786Y-32570000D03*
%TD*%
D23*
%TO.C,D1*%
X56585786Y-32000000D03*
X56585786Y-29900000D03*
%TD*%
D10*
%TO.C,D87*%
X23683758Y-43896078D03*
X24797452Y-42782384D03*
%TD*%
%TO.C,D142*%
X41183758Y-53896078D03*
X42297452Y-52782384D03*
%TD*%
M02*
