%TF.GenerationSoftware,KiCad,Pcbnew,9.0.0*%
%TF.CreationDate,2025-12-23T16:07:17-05:00*%
%TF.ProjectId,BusinessCard,42757369-6e65-4737-9343-6172642e6b69,rev?*%
%TF.SameCoordinates,Original*%
%TF.FileFunction,Soldermask,Top*%
%TF.FilePolarity,Negative*%
%FSLAX46Y46*%
G04 Gerber Fmt 4.6, Leading zero omitted, Abs format (unit mm)*
G04 Created by KiCad (PCBNEW 9.0.0) date 2025-12-23 16:07:17*
%MOMM*%
%LPD*%
G01*
G04 APERTURE LIST*
G04 Aperture macros list*
%AMRoundRect*
0 Rectangle with rounded corners*
0 $1 Rounding radius*
0 $2 $3 $4 $5 $6 $7 $8 $9 X,Y pos of 4 corners*
0 Add a 4 corners polygon primitive as box body*
4,1,4,$2,$3,$4,$5,$6,$7,$8,$9,$2,$3,0*
0 Add four circle primitives for the rounded corners*
1,1,$1+$1,$2,$3*
1,1,$1+$1,$4,$5*
1,1,$1+$1,$6,$7*
1,1,$1+$1,$8,$9*
0 Add four rect primitives between the rounded corners*
20,1,$1+$1,$2,$3,$4,$5,0*
20,1,$1+$1,$4,$5,$6,$7,0*
20,1,$1+$1,$6,$7,$8,$9,0*
20,1,$1+$1,$8,$9,$2,$3,0*%
G04 Aperture macros list end*
%ADD10C,0.000000*%
%ADD11RoundRect,0.218750X0.026517X-0.335876X0.335876X-0.026517X-0.026517X0.335876X-0.335876X0.026517X0*%
%ADD12RoundRect,0.102000X-0.475000X-0.700000X0.475000X-0.700000X0.475000X0.700000X-0.475000X0.700000X0*%
%ADD13RoundRect,0.160000X0.197500X0.160000X-0.197500X0.160000X-0.197500X-0.160000X0.197500X-0.160000X0*%
%ADD14RoundRect,0.160000X-0.197500X-0.160000X0.197500X-0.160000X0.197500X0.160000X-0.197500X0.160000X0*%
%ADD15RoundRect,0.160000X-0.160000X0.197500X-0.160000X-0.197500X0.160000X-0.197500X0.160000X0.197500X0*%
%ADD16RoundRect,0.155000X-0.155000X0.212500X-0.155000X-0.212500X0.155000X-0.212500X0.155000X0.212500X0*%
%ADD17RoundRect,0.200000X-0.800000X-1.550000X0.800000X-1.550000X0.800000X1.550000X-0.800000X1.550000X0*%
%ADD18C,1.000000*%
%ADD19RoundRect,0.155000X0.212500X0.155000X-0.212500X0.155000X-0.212500X-0.155000X0.212500X-0.155000X0*%
%ADD20RoundRect,0.155000X-0.212500X-0.155000X0.212500X-0.155000X0.212500X0.155000X-0.212500X0.155000X0*%
%ADD21RoundRect,0.155000X0.155000X-0.212500X0.155000X0.212500X-0.155000X0.212500X-0.155000X-0.212500X0*%
%ADD22C,6.400000*%
%ADD23RoundRect,0.121000X-0.761000X-0.121000X0.761000X-0.121000X0.761000X0.121000X-0.761000X0.121000X0*%
%ADD24RoundRect,0.121000X-0.121000X-0.761000X0.121000X-0.761000X0.121000X0.761000X-0.121000X0.761000X0*%
%ADD25RoundRect,0.112500X0.112500X-0.187500X0.112500X0.187500X-0.112500X0.187500X-0.112500X-0.187500X0*%
G04 APERTURE END LIST*
D10*
%TO.C,G\u002A\u002A\u002A*%
G36*
X63035786Y-77817448D02*
G01*
X63146230Y-77866148D01*
X63234175Y-77951560D01*
X63287732Y-78069299D01*
X63298473Y-78160556D01*
X63290887Y-78256468D01*
X63259488Y-78327694D01*
X63196873Y-78399143D01*
X63121691Y-78464378D01*
X63050360Y-78493924D01*
X62954826Y-78500743D01*
X62857453Y-78493547D01*
X62786382Y-78463320D01*
X62712779Y-78399143D01*
X62631910Y-78281276D01*
X62605443Y-78151394D01*
X62634009Y-78021504D01*
X62688362Y-77935483D01*
X62794963Y-77847730D01*
X62914734Y-77809846D01*
X63035786Y-77817448D01*
G37*
G36*
X63275228Y-80166684D02*
G01*
X63278105Y-80397205D01*
X63282277Y-80609948D01*
X63287471Y-80797140D01*
X63293416Y-80951009D01*
X63299842Y-81063784D01*
X63306475Y-81127692D01*
X63309141Y-81137861D01*
X63315511Y-81159399D01*
X63303839Y-81174065D01*
X63265275Y-81183166D01*
X63190973Y-81188006D01*
X63072085Y-81189893D01*
X62954826Y-81190155D01*
X62798631Y-81189580D01*
X62693349Y-81186985D01*
X62630133Y-81181063D01*
X62600133Y-81170510D01*
X62594504Y-81154018D01*
X62600511Y-81137861D01*
X62609200Y-81090828D01*
X62616738Y-80993748D01*
X62623071Y-80856000D01*
X62628145Y-80686960D01*
X62631906Y-80496008D01*
X62634301Y-80292521D01*
X62635275Y-80085877D01*
X62634775Y-79885456D01*
X62632747Y-79700634D01*
X62629137Y-79540790D01*
X62623892Y-79415302D01*
X62616958Y-79333548D01*
X62611011Y-79307253D01*
X62599975Y-79281788D01*
X62605446Y-79264877D01*
X62636603Y-79254773D01*
X62702626Y-79249726D01*
X62812692Y-79247987D01*
X62923059Y-79247802D01*
X63266923Y-79247802D01*
X63275228Y-80166684D01*
G37*
G36*
X60949506Y-78647596D02*
G01*
X60930006Y-78705028D01*
X60918046Y-78789787D01*
X60912868Y-78912008D01*
X60913717Y-79081830D01*
X60914443Y-79117865D01*
X60922826Y-79501046D01*
X61158706Y-79202600D01*
X61294519Y-79028805D01*
X61395896Y-78893971D01*
X61467171Y-78791579D01*
X61512678Y-78715107D01*
X61536751Y-78658035D01*
X61543359Y-78623877D01*
X61547713Y-78599136D01*
X61562535Y-78581846D01*
X61596999Y-78570675D01*
X61660279Y-78564289D01*
X61761548Y-78561355D01*
X61909980Y-78560539D01*
X61979402Y-78560508D01*
X62410672Y-78560508D01*
X62263174Y-78717390D01*
X62196766Y-78791536D01*
X62102279Y-78901791D01*
X61988724Y-79037402D01*
X61865112Y-79187614D01*
X61749025Y-79330990D01*
X61382373Y-79787708D01*
X61776882Y-80332049D01*
X61900128Y-80500922D01*
X62020307Y-80663446D01*
X62130075Y-80809848D01*
X62222085Y-80930355D01*
X62288991Y-81015194D01*
X62303949Y-81033273D01*
X62436506Y-81190155D01*
X61989779Y-81190155D01*
X61543052Y-81190155D01*
X61524353Y-81078096D01*
X61497124Y-81001305D01*
X61434167Y-80887676D01*
X61333927Y-80734640D01*
X61214239Y-80566155D01*
X60922826Y-80166272D01*
X60914519Y-80572583D01*
X60912730Y-80760314D01*
X60916671Y-80898843D01*
X60927065Y-80998522D01*
X60944637Y-81069704D01*
X60950347Y-81084524D01*
X60994482Y-81190155D01*
X60589398Y-81190155D01*
X60427207Y-81189630D01*
X60316160Y-81187265D01*
X60247636Y-81181872D01*
X60213018Y-81172263D01*
X60203688Y-81157250D01*
X60209923Y-81137861D01*
X60217239Y-81093667D01*
X60223760Y-80997785D01*
X60229454Y-80858074D01*
X60234288Y-80682391D01*
X60238230Y-80478594D01*
X60241249Y-80254541D01*
X60243311Y-80018090D01*
X60244386Y-79777099D01*
X60244441Y-79539425D01*
X60243444Y-79312927D01*
X60241363Y-79105463D01*
X60238166Y-78924889D01*
X60233821Y-78779066D01*
X60228295Y-78675849D01*
X60221557Y-78623097D01*
X60220200Y-78619542D01*
X60209930Y-78595838D01*
X60214684Y-78579513D01*
X60243087Y-78569192D01*
X60303767Y-78563502D01*
X60405351Y-78561067D01*
X60556466Y-78560514D01*
X60590778Y-78560508D01*
X60992951Y-78560508D01*
X60949506Y-78647596D01*
G37*
%TD*%
D11*
%TO.C,D105*%
X38683758Y-46396078D03*
X39797452Y-45282384D03*
%TD*%
D12*
%TO.C,SW1*%
X31010786Y-56750000D03*
X35160786Y-56750000D03*
%TD*%
D11*
%TO.C,D6*%
X31183758Y-26396078D03*
X32297452Y-25282384D03*
%TD*%
%TO.C,D15*%
X23683758Y-28896078D03*
X24797452Y-27782384D03*
%TD*%
%TO.C,D95*%
X43683758Y-43896078D03*
X44797452Y-42782384D03*
%TD*%
%TO.C,D126*%
X31183758Y-51396078D03*
X32297452Y-50282384D03*
%TD*%
%TO.C,D58*%
X41183758Y-36396078D03*
X42297452Y-35282384D03*
%TD*%
%TO.C,D128*%
X36183758Y-51396078D03*
X37297452Y-50282384D03*
%TD*%
%TO.C,D81*%
X38683758Y-41396078D03*
X39797452Y-40282384D03*
%TD*%
%TO.C,D101*%
X28683758Y-46396078D03*
X29797452Y-45282384D03*
%TD*%
%TO.C,D10*%
X41183758Y-26396078D03*
X42297452Y-25282384D03*
%TD*%
%TO.C,D38*%
X21183758Y-33896078D03*
X22297452Y-32782384D03*
%TD*%
%TO.C,D30*%
X31183758Y-31396078D03*
X32297452Y-30282384D03*
%TD*%
%TO.C,D48*%
X46183758Y-33896078D03*
X47297452Y-32782384D03*
%TD*%
%TO.C,D31*%
X33683758Y-31396078D03*
X34797452Y-30282384D03*
%TD*%
%TO.C,D56*%
X36183758Y-36396078D03*
X37297452Y-35282384D03*
%TD*%
D13*
%TO.C,R12*%
X52347500Y-34500000D03*
X51152500Y-34500000D03*
%TD*%
D11*
%TO.C,D93*%
X38683758Y-43896078D03*
X39797452Y-42782384D03*
%TD*%
D13*
%TO.C,R10*%
X52347500Y-29500000D03*
X51152500Y-29500000D03*
%TD*%
D11*
%TO.C,D86*%
X21183758Y-43896078D03*
X22297452Y-42782384D03*
%TD*%
%TO.C,D135*%
X23683758Y-53896078D03*
X24797452Y-52782384D03*
%TD*%
D14*
%TO.C,R6*%
X61065786Y-60500000D03*
X62260786Y-60500000D03*
%TD*%
D11*
%TO.C,D118*%
X41183758Y-48896078D03*
X42297452Y-47782384D03*
%TD*%
%TO.C,D94*%
X41183758Y-43896078D03*
X42297452Y-42782384D03*
%TD*%
%TO.C,D12*%
X46183758Y-26396078D03*
X47297452Y-25282384D03*
%TD*%
D13*
%TO.C,R15*%
X52347500Y-42000000D03*
X51152500Y-42000000D03*
%TD*%
D11*
%TO.C,D136*%
X26183758Y-53896078D03*
X27297452Y-52782384D03*
%TD*%
%TO.C,D134*%
X21183758Y-53896078D03*
X22297452Y-52782384D03*
%TD*%
D15*
%TO.C,R1*%
X60750000Y-27902500D03*
X60750000Y-29097500D03*
%TD*%
D11*
%TO.C,D100*%
X26183758Y-46396078D03*
X27297452Y-45282384D03*
%TD*%
D16*
%TO.C,C4*%
X56000000Y-36682500D03*
X56000000Y-37817500D03*
%TD*%
D11*
%TO.C,D41*%
X28683758Y-33896078D03*
X29797452Y-32782384D03*
%TD*%
D13*
%TO.C,R16*%
X52347500Y-44500000D03*
X51152500Y-44500000D03*
%TD*%
D11*
%TO.C,D83*%
X43683758Y-41396078D03*
X44797452Y-40282384D03*
%TD*%
%TO.C,D113*%
X28683758Y-48896078D03*
X29797452Y-47782384D03*
%TD*%
%TO.C,D53*%
X28683758Y-36396078D03*
X29797452Y-35282384D03*
%TD*%
%TO.C,D99*%
X23683758Y-46396078D03*
X24797452Y-45282384D03*
%TD*%
%TO.C,D7*%
X33683758Y-26396078D03*
X34797452Y-25282384D03*
%TD*%
D12*
%TO.C,SW5*%
X55435786Y-60500000D03*
X59585786Y-60500000D03*
%TD*%
D11*
%TO.C,D106*%
X41183758Y-46396078D03*
X42297452Y-45282384D03*
%TD*%
%TO.C,D25*%
X48683758Y-28896078D03*
X49797452Y-27782384D03*
%TD*%
D13*
%TO.C,R17*%
X52347500Y-47000000D03*
X51152500Y-47000000D03*
%TD*%
D11*
%TO.C,D39*%
X23683758Y-33896078D03*
X24797452Y-32782384D03*
%TD*%
%TO.C,D22*%
X41183758Y-28896078D03*
X42297452Y-27782384D03*
%TD*%
D12*
%TO.C,SW2*%
X23510786Y-59250000D03*
X27660786Y-59250000D03*
%TD*%
D17*
%TO.C,J3*%
X32835786Y-72750000D03*
X64335786Y-72750000D03*
%TD*%
D11*
%TO.C,D144*%
X46183758Y-53896078D03*
X47297452Y-52782384D03*
%TD*%
D14*
%TO.C,R5*%
X44140786Y-59250000D03*
X45335786Y-59250000D03*
%TD*%
D11*
%TO.C,D79*%
X33683758Y-41396078D03*
X34797452Y-40282384D03*
%TD*%
%TO.C,D49*%
X48683758Y-33896078D03*
X49797452Y-32782384D03*
%TD*%
%TO.C,D125*%
X28683758Y-51396078D03*
X29797452Y-50282384D03*
%TD*%
%TO.C,D69*%
X38683758Y-38896078D03*
X39797452Y-37782384D03*
%TD*%
%TO.C,D73*%
X48683758Y-38896078D03*
X49797452Y-37782384D03*
%TD*%
%TO.C,D82*%
X41183758Y-41396078D03*
X42297452Y-40282384D03*
%TD*%
D18*
%TO.C,J1*%
X69585786Y-50500000D03*
X69585786Y-49250000D03*
X69585786Y-48000000D03*
%TD*%
D11*
%TO.C,D23*%
X43683758Y-28896078D03*
X44797452Y-27782384D03*
%TD*%
%TO.C,D8*%
X36183758Y-26396078D03*
X37297452Y-25282384D03*
%TD*%
%TO.C,D120*%
X46183758Y-48896078D03*
X47297452Y-47782384D03*
%TD*%
%TO.C,D35*%
X43683758Y-31396078D03*
X44797452Y-30282384D03*
%TD*%
%TO.C,D26*%
X21183758Y-31396078D03*
X22297452Y-30282384D03*
%TD*%
%TO.C,D76*%
X26183758Y-41396078D03*
X27297452Y-40282384D03*
%TD*%
D14*
%TO.C,R4*%
X29085786Y-59250000D03*
X30280786Y-59250000D03*
%TD*%
D11*
%TO.C,D75*%
X23683758Y-41396078D03*
X24797452Y-40282384D03*
%TD*%
D18*
%TO.C,J2*%
X59710786Y-24250000D03*
X60960786Y-24250000D03*
X62210786Y-24250000D03*
X63460786Y-24250000D03*
%TD*%
D11*
%TO.C,D54*%
X31183758Y-36396078D03*
X32297452Y-35282384D03*
%TD*%
D13*
%TO.C,R8*%
X52347500Y-24500000D03*
X51152500Y-24500000D03*
%TD*%
D11*
%TO.C,D27*%
X23683758Y-31396078D03*
X24797452Y-30282384D03*
%TD*%
%TO.C,D34*%
X41183758Y-31396078D03*
X42297452Y-30282384D03*
%TD*%
%TO.C,D47*%
X43683758Y-33896078D03*
X44797452Y-32782384D03*
%TD*%
%TO.C,D52*%
X26183758Y-36396078D03*
X27297452Y-35282384D03*
%TD*%
%TO.C,D124*%
X26183758Y-51396078D03*
X27297452Y-50282384D03*
%TD*%
%TO.C,D119*%
X43683758Y-48896078D03*
X44797452Y-47782384D03*
%TD*%
%TO.C,D71*%
X43683758Y-38896078D03*
X44797452Y-37782384D03*
%TD*%
%TO.C,D114*%
X31183758Y-48896078D03*
X32297452Y-47782384D03*
%TD*%
D19*
%TO.C,C3*%
X65385000Y-42500000D03*
X64250000Y-42500000D03*
%TD*%
D11*
%TO.C,D121*%
X48683758Y-48896078D03*
X49797452Y-47782384D03*
%TD*%
%TO.C,D133*%
X48683758Y-51396078D03*
X49797452Y-50282384D03*
%TD*%
%TO.C,D68*%
X36183758Y-38896078D03*
X37297452Y-37782384D03*
%TD*%
%TO.C,D80*%
X36183758Y-41396078D03*
X37297452Y-40282384D03*
%TD*%
D20*
%TO.C,C2*%
X66518286Y-33000000D03*
X67653286Y-33000000D03*
%TD*%
D11*
%TO.C,D9*%
X38683758Y-26396078D03*
X39797452Y-25282384D03*
%TD*%
%TO.C,D109*%
X48683758Y-46396078D03*
X49797452Y-45282384D03*
%TD*%
%TO.C,D97*%
X48683758Y-43896078D03*
X49797452Y-42782384D03*
%TD*%
%TO.C,D16*%
X26183758Y-28896078D03*
X27297452Y-27782384D03*
%TD*%
%TO.C,D46*%
X41183758Y-33896078D03*
X42297452Y-32782384D03*
%TD*%
%TO.C,D21*%
X38683758Y-28896078D03*
X39797452Y-27782384D03*
%TD*%
%TO.C,D91*%
X33683758Y-43896078D03*
X34797452Y-42782384D03*
%TD*%
%TO.C,D84*%
X46183758Y-41396078D03*
X47297452Y-40282384D03*
%TD*%
%TO.C,D103*%
X33683758Y-46396078D03*
X34797452Y-45282384D03*
%TD*%
%TO.C,D90*%
X31183758Y-43896078D03*
X32297452Y-42782384D03*
%TD*%
D19*
%TO.C,C5*%
X48750000Y-59250000D03*
X47615000Y-59250000D03*
%TD*%
D11*
%TO.C,D2*%
X21183758Y-26396078D03*
X22297452Y-25282384D03*
%TD*%
%TO.C,D138*%
X31183758Y-53896078D03*
X32297452Y-52782384D03*
%TD*%
%TO.C,D74*%
X21183758Y-41396078D03*
X22297452Y-40282384D03*
%TD*%
%TO.C,D66*%
X31183758Y-38896078D03*
X32297452Y-37782384D03*
%TD*%
%TO.C,D11*%
X43683758Y-26396078D03*
X44797452Y-25282384D03*
%TD*%
%TO.C,D57*%
X38683758Y-36396078D03*
X39797452Y-35282384D03*
%TD*%
D12*
%TO.C,SW6*%
X61435786Y-63000000D03*
X65585786Y-63000000D03*
%TD*%
D11*
%TO.C,D132*%
X46183758Y-51396078D03*
X47297452Y-50282384D03*
%TD*%
%TO.C,D107*%
X43683758Y-46396078D03*
X44797452Y-45282384D03*
%TD*%
D13*
%TO.C,R11*%
X52347500Y-32000000D03*
X51152500Y-32000000D03*
%TD*%
D11*
%TO.C,D123*%
X23683758Y-51396078D03*
X24797452Y-50282384D03*
%TD*%
%TO.C,D89*%
X28683758Y-43896078D03*
X29797452Y-42782384D03*
%TD*%
%TO.C,D44*%
X36183758Y-33896078D03*
X37297452Y-32782384D03*
%TD*%
%TO.C,D77*%
X28683758Y-41396078D03*
X29797452Y-40282384D03*
%TD*%
%TO.C,D29*%
X28683758Y-31396078D03*
X29797452Y-30282384D03*
%TD*%
%TO.C,D13*%
X48683758Y-26396078D03*
X49797452Y-25282384D03*
%TD*%
%TO.C,D88*%
X26183758Y-43896078D03*
X27297452Y-42782384D03*
%TD*%
%TO.C,D19*%
X33683758Y-28896078D03*
X34797452Y-27782384D03*
%TD*%
D13*
%TO.C,R9*%
X52347500Y-27000000D03*
X51152500Y-27000000D03*
%TD*%
D11*
%TO.C,D116*%
X36183758Y-48896078D03*
X37297452Y-47782384D03*
%TD*%
%TO.C,D18*%
X31183758Y-28896078D03*
X32297452Y-27782384D03*
%TD*%
%TO.C,D85*%
X48683758Y-41396078D03*
X49797452Y-40282384D03*
%TD*%
%TO.C,D61*%
X48683758Y-36396078D03*
X49797452Y-35282384D03*
%TD*%
D14*
%TO.C,R3*%
X36738286Y-61750000D03*
X37933286Y-61750000D03*
%TD*%
D11*
%TO.C,D111*%
X23683758Y-48896078D03*
X24797452Y-47782384D03*
%TD*%
%TO.C,D70*%
X41183758Y-38896078D03*
X42297452Y-37782384D03*
%TD*%
%TO.C,D40*%
X26183758Y-33896078D03*
X27297452Y-32782384D03*
%TD*%
%TO.C,D55*%
X33683758Y-36396078D03*
X34797452Y-35282384D03*
%TD*%
%TO.C,D117*%
X38683758Y-48896078D03*
X39797452Y-47782384D03*
%TD*%
%TO.C,D32*%
X36183758Y-31396078D03*
X37297452Y-30282384D03*
%TD*%
%TO.C,D5*%
X28683758Y-26396078D03*
X29797452Y-25282384D03*
%TD*%
%TO.C,D43*%
X33683758Y-33896078D03*
X34797452Y-32782384D03*
%TD*%
%TO.C,D130*%
X41183758Y-51396078D03*
X42297452Y-50282384D03*
%TD*%
%TO.C,D104*%
X36183758Y-46396078D03*
X37297452Y-45282384D03*
%TD*%
D14*
%TO.C,R2*%
X36688286Y-56750000D03*
X37883286Y-56750000D03*
%TD*%
D11*
%TO.C,D63*%
X23683758Y-38896078D03*
X24797452Y-37782384D03*
%TD*%
D21*
%TO.C,C1*%
X58085786Y-32317500D03*
X58085786Y-31182500D03*
%TD*%
D12*
%TO.C,SW4*%
X38510786Y-59250000D03*
X42660786Y-59250000D03*
%TD*%
D11*
%TO.C,D143*%
X43683758Y-53896078D03*
X44797452Y-52782384D03*
%TD*%
%TO.C,D33*%
X38683758Y-31396078D03*
X39797452Y-30282384D03*
%TD*%
%TO.C,D17*%
X28683758Y-28896078D03*
X29797452Y-27782384D03*
%TD*%
%TO.C,D72*%
X46183758Y-38896078D03*
X47297452Y-37782384D03*
%TD*%
%TO.C,D131*%
X43683758Y-51396078D03*
X44797452Y-50282384D03*
%TD*%
%TO.C,D129*%
X38683758Y-51396078D03*
X39797452Y-50282384D03*
%TD*%
%TO.C,D51*%
X23683758Y-36396078D03*
X24797452Y-35282384D03*
%TD*%
D13*
%TO.C,R14*%
X52347500Y-39500000D03*
X51152500Y-39500000D03*
%TD*%
%TO.C,R13*%
X52347500Y-37000000D03*
X51152500Y-37000000D03*
%TD*%
D11*
%TO.C,D141*%
X38683758Y-53896078D03*
X39797452Y-52782384D03*
%TD*%
%TO.C,D59*%
X43683758Y-36396078D03*
X44797452Y-35282384D03*
%TD*%
%TO.C,D3*%
X23683758Y-26396078D03*
X24797452Y-25282384D03*
%TD*%
%TO.C,D28*%
X26183758Y-31396078D03*
X27297452Y-30282384D03*
%TD*%
%TO.C,D36*%
X46183758Y-31396078D03*
X47297452Y-30282384D03*
%TD*%
D13*
%TO.C,R18*%
X52347500Y-49500000D03*
X51152500Y-49500000D03*
%TD*%
D11*
%TO.C,D4*%
X26183758Y-26396078D03*
X27297452Y-25282384D03*
%TD*%
%TO.C,D20*%
X36183758Y-28896078D03*
X37297452Y-27782384D03*
%TD*%
%TO.C,D112*%
X26183758Y-48896078D03*
X27297452Y-47782384D03*
%TD*%
%TO.C,D96*%
X46183758Y-43896078D03*
X47297452Y-42782384D03*
%TD*%
%TO.C,D78*%
X31183758Y-41396078D03*
X32297452Y-40282384D03*
%TD*%
%TO.C,D139*%
X33683758Y-53896078D03*
X34797452Y-52782384D03*
%TD*%
%TO.C,D102*%
X31183758Y-46396078D03*
X32297452Y-45282384D03*
%TD*%
%TO.C,D60*%
X46183758Y-36396078D03*
X47297452Y-35282384D03*
%TD*%
%TO.C,D127*%
X33683758Y-51396078D03*
X34797452Y-50282384D03*
%TD*%
%TO.C,D115*%
X33683758Y-48896078D03*
X34797452Y-47782384D03*
%TD*%
%TO.C,D137*%
X28683758Y-53896078D03*
X29797452Y-52782384D03*
%TD*%
%TO.C,D45*%
X38683758Y-33896078D03*
X39797452Y-32782384D03*
%TD*%
%TO.C,D42*%
X31183758Y-33896078D03*
X32297452Y-32782384D03*
%TD*%
%TO.C,D145*%
X48683758Y-53896078D03*
X49797452Y-52782384D03*
%TD*%
%TO.C,D122*%
X21183758Y-51396078D03*
X22297452Y-50282384D03*
%TD*%
%TO.C,D110*%
X21183758Y-48896078D03*
X22297452Y-47782384D03*
%TD*%
%TO.C,D98*%
X21183758Y-46396078D03*
X22297452Y-45282384D03*
%TD*%
%TO.C,D62*%
X21183758Y-38896078D03*
X22297452Y-37782384D03*
%TD*%
%TO.C,D24*%
X46183758Y-28896078D03*
X47297452Y-27782384D03*
%TD*%
%TO.C,D37*%
X48683758Y-31396078D03*
X49797452Y-30282384D03*
%TD*%
%TO.C,D92*%
X36183758Y-43896078D03*
X37297452Y-42782384D03*
%TD*%
%TO.C,D64*%
X26183758Y-38896078D03*
X27297452Y-37782384D03*
%TD*%
%TO.C,D140*%
X36183758Y-53896078D03*
X37297452Y-52782384D03*
%TD*%
%TO.C,D14*%
X21183758Y-28896078D03*
X22297452Y-27782384D03*
%TD*%
%TO.C,D50*%
X21183758Y-36396078D03*
X22297452Y-35282384D03*
%TD*%
D12*
%TO.C,SW3*%
X31010786Y-61750000D03*
X35160786Y-61750000D03*
%TD*%
D13*
%TO.C,R19*%
X52347500Y-52000000D03*
X51152500Y-52000000D03*
%TD*%
D11*
%TO.C,D65*%
X28683758Y-38896078D03*
X29797452Y-37782384D03*
%TD*%
%TO.C,D67*%
X33683758Y-38896078D03*
X34797452Y-37782384D03*
%TD*%
D14*
%TO.C,R7*%
X67065786Y-63000000D03*
X68260786Y-63000000D03*
%TD*%
D22*
%TO.C,REF\u002A\u002A*%
X24585786Y-104750000D03*
%TD*%
D11*
%TO.C,D108*%
X46183758Y-46396078D03*
X47297452Y-45282384D03*
%TD*%
D23*
%TO.C,U1*%
X57585786Y-34000000D03*
X57585786Y-34500000D03*
X57585786Y-35000000D03*
X57585786Y-35500000D03*
X57585786Y-36000000D03*
X57585786Y-36500000D03*
X57585786Y-37000000D03*
X57585786Y-37500000D03*
X57585786Y-38000000D03*
X57585786Y-38500000D03*
X57585786Y-39000000D03*
X57585786Y-39500000D03*
D24*
X59015786Y-40930000D03*
X59515786Y-40930000D03*
X60015786Y-40930000D03*
X60515786Y-40930000D03*
X61015786Y-40930000D03*
X61515786Y-40930000D03*
X62015786Y-40930000D03*
X62515786Y-40930000D03*
X63015786Y-40930000D03*
X63515786Y-40930000D03*
X64015786Y-40930000D03*
X64515786Y-40930000D03*
D23*
X65945786Y-39500000D03*
X65945786Y-39000000D03*
X65945786Y-38500000D03*
X65945786Y-38000000D03*
X65945786Y-37500000D03*
X65945786Y-37000000D03*
X65945786Y-36500000D03*
X65945786Y-36000000D03*
X65945786Y-35500000D03*
X65945786Y-35000000D03*
X65945786Y-34500000D03*
X65945786Y-34000000D03*
D24*
X64515786Y-32570000D03*
X64015786Y-32570000D03*
X63515786Y-32570000D03*
X63015786Y-32570000D03*
X62515786Y-32570000D03*
X62015786Y-32570000D03*
X61515786Y-32570000D03*
X61015786Y-32570000D03*
X60515786Y-32570000D03*
X60015786Y-32570000D03*
X59515786Y-32570000D03*
X59015786Y-32570000D03*
%TD*%
D25*
%TO.C,D1*%
X56585786Y-32000000D03*
X56585786Y-29900000D03*
%TD*%
D11*
%TO.C,D87*%
X23683758Y-43896078D03*
X24797452Y-42782384D03*
%TD*%
%TO.C,D142*%
X41183758Y-53896078D03*
X42297452Y-52782384D03*
%TD*%
M02*
